<svg xmlns="http://www.w3.org/2000/svg" xmlns:xlink="http://www.w3.org/1999/xlink" width="489.082" height="331.331" viewBox="0 0 489.082 331.331">
    <defs>
        <style>
            .cls-1{fill:url(#linear-gradient)}.cls-2{fill:url(#linear-gradient-2)}.cls-3{fill:url(#linear-gradient-3)}.cls-4{fill:#020230;opacity:.6}.cls-5{fill:url(#linear-gradient-4)}.cls-6{fill:url(#radial-gradient)}.cls-7{fill:url(#radial-gradient-2)}.cls-8{fill:url(#radial-gradient-3)}.cls-9{fill:#fff}.cls-10,.cls-14{opacity:.4}.cls-11,.cls-14,.cls-15{fill:#06033e}.cls-12{fill:url(#radial-gradient-4)}.cls-13{fill:url(#linear-gradient-5)}.cls-15,.cls-17{opacity:.5}.cls-16{fill:url(#radial-gradient-5)}.cls-18{fill:#e8975b}.cls-19{fill:#f8359e}.cls-20{fill:url(#linear-gradient-6)}
        </style>
        <linearGradient id="linear-gradient" x1="-.001" x2=".999" y1=".501" y2=".501" gradientUnits="objectBoundingBox">
            <stop offset="0" stop-color="#e39a65"/>
            <stop offset="1" stop-color="#e95f8d"/>
        </linearGradient>
        <linearGradient id="linear-gradient-2" x2="1.002" y1=".501" y2=".501" xlink:href="#linear-gradient"/>
        <linearGradient id="linear-gradient-3" x2="1.001" y1=".502" y2=".502" xlink:href="#linear-gradient"/>
        <linearGradient id="linear-gradient-4" x2="1" y1=".5" y2=".5" xlink:href="#linear-gradient"/>
        <radialGradient id="radial-gradient" cx="608.617" cy="134.98" r="230.551" gradientTransform="matrix(1.08 0 0 1.08 -27.589 -5.597)" gradientUnits="userSpaceOnUse">
            <stop offset="0" stop-color="#e39a65"/>
            <stop offset=".474" stop-color="#a92ffb"/>
            <stop offset=".595" stop-color="#891cfb"/>
            <stop offset=".742" stop-color="#6507fa"/>
            <stop offset=".802" stop-color="#0d0c6f"/>
        </radialGradient>
        <radialGradient id="radial-gradient-2" cx="-817.836" cy="-883.307" r="474.953" gradientTransform="matrix(.573 0 0 .573 -417.516 -455.769)" gradientUnits="userSpaceOnUse">
            <stop offset="0" stop-color="#e39a65"/>
            <stop offset=".474" stop-color="#a92ffb"/>
            <stop offset=".568" stop-color="#891cfb"/>
            <stop offset=".683" stop-color="#6507fa"/>
            <stop offset=".738" stop-color="#0d0c6f"/>
        </radialGradient>
        <radialGradient id="radial-gradient-3" cx="-783.994" cy="-899.16" r="423.067" gradientTransform="matrix(.577 0 0 .577 -399.437 -456.39)" gradientUnits="userSpaceOnUse">
            <stop offset="0" stop-color="#e39a65"/>
            <stop offset=".474" stop-color="#a92ffb"/>
            <stop offset=".587" stop-color="#891cfb"/>
            <stop offset=".726" stop-color="#6507fa"/>
            <stop offset="1" stop-color="#3919bb"/>
        </radialGradient>
        <radialGradient id="radial-gradient-4" cx="525.858" cy="184.398" r="231.385" gradientTransform="translate(-20.173 -9.055) scale(1.077)" xlink:href="#radial-gradient-3"/>
        <linearGradient id="linear-gradient-5" x2="1" y1=".5" y2=".5" gradientUnits="objectBoundingBox">
            <stop offset="0" stop-color="#3919bb"/>
            <stop offset="1" stop-color="#6507fa"/>
        </linearGradient>
        <radialGradient id="radial-gradient-5" cx="464.655" cy="166.27" r="360.251" gradientTransform="translate(-13.344 -4.994) scale(1.077)" xlink:href="#radial-gradient-3"/>
        <linearGradient id="linear-gradient-6" x2="1" y1=".5" y2=".5" xlink:href="#linear-gradient"/>
    </defs>
    <g id="Group_2977" data-name="Group 2977" transform="translate(-89.217 -119.113)">
        <path id="Path_1926" d="M499.28 318.715a8.138 8.138 0 0 1-3.9-1l-13.05-7.584a2.444 2.444 0 0 1 0-4.238l13.05-7.584a8.092 8.092 0 0 1 7.807 0l13.05 7.584a2.444 2.444 0 0 1 0 4.238l-13.05 7.584a8.138 8.138 0 0 1-3.907 1zm0-19.3a5.4 5.4 0 0 0-2.9.781l-13.05 7.584c-.112.112-.223.223-.223.335s0 .223.223.335l13.05 7.584a5.749 5.749 0 0 0 5.688 0l13.05-7.584c.112-.112.223-.223.223-.335s0-.223-.223-.335l-13.05-7.584a5.3 5.3 0 0 0-2.788-.777z" class="cls-1" data-name="Path 1926" transform="translate(60.838 79.727)"/>
        <path id="Path_1927" d="M466.961 281.768a12.9 12.9 0 0 1-6.361-1.668l-22.53-13.05a3.287 3.287 0 0 1-1.673-3.011 3.66 3.66 0 0 1 1.673-3.011l22.53-13.05a12.7 12.7 0 0 1 12.6 0l22.53 13.05a3.287 3.287 0 0 1 1.673 3.011 3.66 3.66 0 0 1-1.673 3.011L473.2 280.1a13.392 13.392 0 0 1-6.239 1.668zm-5.242-3.569a10.579 10.579 0 0 0 10.6 0l22.53-13.05a1.264 1.264 0 0 0 0-2.231l-22.53-13.05a10.579 10.579 0 0 0-10.6 0l-22.53 13.05a1.264 1.264 0 0 0 0 2.231z" class="cls-2" data-name="Path 1927" transform="translate(55.682 73.984)"/>
        <path id="Path_1928" d="M105.761 300.068A12.9 12.9 0 0 1 99.4 298.4l-22.53-13.05a3.287 3.287 0 0 1-1.673-3.011 3.66 3.66 0 0 1 1.673-3.011l22.53-13.05a12.7 12.7 0 0 1 12.6 0l22.53 13.05a3.287 3.287 0 0 1 1.673 3.011 3.66 3.66 0 0 1-1.673 3.011L112 298.4a12.49 12.49 0 0 1-6.239 1.668zm0-33.238a9.794 9.794 0 0 0-5.242 1.45l-22.53 13.05a1.264 1.264 0 0 0 0 2.231l22.53 13.05a10.579 10.579 0 0 0 10.6 0l22.53-13.05a1.264 1.264 0 0 0 0-2.231l-22.53-13.05a10.752 10.752 0 0 0-5.358-1.449z" class="cls-3" data-name="Path 1928" transform="translate(14.016 76.037)"/>
        <g id="Group_716" data-name="Group 716" transform="translate(160.264 119.113)">
            <path id="Path_1929" d="M323.919 363.769l-161.057-93.02c-2.342-1.338-2.008-3.681.669-5.242l103.393-59.671c2.677-1.561 6.8-1.785 9.146-.335l161.057 93.021c2.342 1.338 2.008 3.681-.669 5.242l-103.393 59.671c-2.677 1.45-6.804 1.673-9.146.334z" class="cls-4" data-name="Path 1929" transform="translate(-136.317 -49.168)"/>
            <path id="Path_1930" d="M330.183 381.978a10.13 10.13 0 0 1-5.019-1.227l-183.922-106.07a4.274 4.274 0 0 1-2.342-3.569c0-1.562 1.115-3.235 3.123-4.35l125.366-73.39c3.458-2.008 8.477-2.231 11.488-.446l183.81 106.182a4.274 4.274 0 0 1 2.342 3.569c0 1.561-1.115 3.235-3.123 4.35l-125.366 73.39a13.409 13.409 0 0 1-6.357 1.561zm-56.325-188.049a11.327 11.327 0 0 0-5.465 1.338l-125.366 73.39c-1.338.781-2.008 1.673-2.008 2.565a2.059 2.059 0 0 0 1.338 1.673l183.81 106.182c2.342 1.338 6.692 1.115 9.369-.446l125.364-73.39c1.338-.781 2.008-1.673 2.008-2.565a2.059 2.059 0 0 0-1.337-1.676l-183.81-106.179a7.231 7.231 0 0 0-3.903-.892z" class="cls-5" data-name="Path 1930" transform="translate(-138.9 -50.646)"/>
            <path id="Path_1931" d="M468.023 158.551l-160.5-92.686a3.8 3.8 0 0 0-3.234-.446l-3.012 1 1 .223a4.653 4.653 0 0 0-1 1.785l-36.248 117.896a7.193 7.193 0 0 0 2.9 7.919l160.5 92.686a3.994 3.994 0 0 0 1.227.446l-.446.892 2.788-1a4.439 4.439 0 0 0 2.565-3.011l36.36-117.781a7.031 7.031 0 0 0-2.9-7.923z" class="cls-6" data-name="Path 1931" transform="translate(-124.383 -65.236)"/>
            <path id="Path_1932" d="M434.673 277.455L276.293 186c-2.342-1.338-6.358-1.227-9.146.335l-102.389 59.109-3.458-1.338 1 4.8a2.817 2.817 0 0 0 1.561 1.9l159.942 92.463c2.342 1.338 6.357 1.227 9.146-.335L435.565 283.7a4.724 4.724 0 0 0 2.231-2.565l1-4.684z" class="cls-7" data-name="Path 1932" transform="translate(-136.316 -51.413)"/>
            <path id="Path_1933" d="M323.919 339.669l-161.057-93.02c-2.342-1.338-2.008-3.681.669-5.242l103.393-59.671c2.677-1.561 6.8-1.785 9.146-.335l161.057 93.021c2.342 1.338 2.008 3.681-.669 5.242l-103.393 59.671c-2.677 1.45-6.804 1.673-9.146.334z" class="cls-8" data-name="Path 1933" transform="translate(-136.317 -51.948)"/>
            <path id="Path_1934" d="M436.457 271.788l-103.393 59.671c-2.677 1.562-6.8 1.785-9.146.335l-161.057-93.021a2.973 2.973 0 0 1-1.45-1.673c-.335 1.115.112 2.119 1.45 2.9l161.057 93.021c2.342 1.338 6.469 1.227 9.146-.335l103.393-59.671c1.785-1 2.454-2.454 2.119-3.569a4.139 4.139 0 0 1-2.119 2.342z" class="cls-9" data-name="Path 1934" transform="translate(-136.316 -45.411)"/>
            <g id="Group_712" class="cls-10" data-name="Group 712" transform="translate(97.644 150.042)">
                <path id="Path_1935" d="M232.195 227.135l-5.465-3.123c-.446-.223-.335-.669.112-1l6.469-3.681a1.8 1.8 0 0 1 1.673-.112l5.465 3.123c.446.223.335.669-.112 1l-6.469 3.681a2.188 2.188 0 0 1-1.673.112z" class="cls-11" data-name="Path 1935" transform="translate(-226.445 -197.534)"/>
                <path id="Path_1936" d="M239.695 231.435l-5.465-3.123c-.446-.223-.335-.669.112-1l6.469-3.681a1.8 1.8 0 0 1 1.673-.112l5.465 3.123c.446.223.335.669-.112 1l-6.469 3.681a1.788 1.788 0 0 1-1.673.112z" class="cls-11" data-name="Path 1936" transform="translate(-225.58 -197.038)"/>
                <path id="Path_1937" d="M247.195 235.735l-5.465-3.123c-.446-.223-.335-.669.112-1l6.469-3.681a1.8 1.8 0 0 1 1.673-.112l5.465 3.123c.446.223.335.669-.112 1l-6.469 3.681a1.528 1.528 0 0 1-1.673.112z" class="cls-11" data-name="Path 1937" transform="translate(-224.715 -196.542)"/>
                <path id="Path_1938" d="M257.695 232.177l-5.465-3.123c-.446-.223-.335-.669.112-1l5.354-3.123a1.8 1.8 0 0 1 1.673-.112l5.465 3.123c.446.223.335.669-.112 1l-5.354 3.123a1.811 1.811 0 0 1-1.673.112z" class="cls-11" data-name="Path 1938" transform="translate(-223.504 -196.888)"/>
                <path id="Path_1939" d="M265.195 236.477l-5.465-3.123c-.446-.223-.335-.669.112-1l5.354-3.123a1.8 1.8 0 0 1 1.673-.112l5.465 3.123c.446.223.335.669-.112 1l-5.354 3.123a1.788 1.788 0 0 1-1.673.112z" class="cls-11" data-name="Path 1939" transform="translate(-222.639 -196.392)"/>
                <path id="Path_1940" d="M272.695 240.877l-5.465-3.123c-.446-.223-.335-.669.112-1l5.354-3.123a1.8 1.8 0 0 1 1.673-.112l5.465 3.123c.446.223.335.669-.112 1l-5.354 3.123a2.188 2.188 0 0 1-1.673.112z" class="cls-11" data-name="Path 1940" transform="translate(-221.774 -195.885)"/>
                <path id="Path_1941" d="M280.195 245.177l-5.465-3.123c-.446-.223-.335-.669.112-1l5.354-3.123a1.8 1.8 0 0 1 1.673-.112l5.465 3.123c.446.223.335.669-.112 1l-5.354 3.123a1.788 1.788 0 0 1-1.673.112z" class="cls-11" data-name="Path 1941" transform="translate(-220.908 -195.389)"/>
                <path id="Path_1942" d="M287.795 249.477l-5.465-3.123c-.446-.223-.335-.669.112-1l5.354-3.123a1.8 1.8 0 0 1 1.673-.112l5.465 3.123c.446.223.335.669-.112 1l-5.354 3.123a1.528 1.528 0 0 1-1.673.112z" class="cls-11" data-name="Path 1942" transform="translate(-220.032 -194.893)"/>
                <path id="Path_1943" d="M295.295 253.877l-5.465-3.123c-.446-.223-.335-.669.112-1l5.354-3.123a1.8 1.8 0 0 1 1.673-.112l5.465 3.123c.446.223.335.669-.112 1l-5.354 3.123a1.788 1.788 0 0 1-1.673.112z" class="cls-11" data-name="Path 1943" transform="translate(-219.167 -194.385)"/>
                <path id="Path_1944" d="M302.795 258.177l-5.465-3.123c-.446-.223-.335-.669.112-1l5.354-3.123a1.8 1.8 0 0 1 1.673-.112l5.465 3.123c.446.223.335.669-.112 1l-5.354 3.123a1.528 1.528 0 0 1-1.673.112z" class="cls-11" data-name="Path 1944" transform="translate(-218.302 -193.889)"/>
                <path id="Path_1945" d="M310.395 262.577l-5.465-3.123c-.446-.223-.335-.669.112-1l5.354-3.123a1.8 1.8 0 0 1 1.673-.112l5.465 3.123c.446.223.335.669-.112 1l-5.354 3.123a1.8 1.8 0 0 1-1.673.112z" class="cls-11" data-name="Path 1945" transform="translate(-217.425 -193.382)"/>
                <path id="Path_1946" d="M317.895 266.877l-5.465-3.123c-.446-.223-.335-.669.112-1l5.354-3.123a1.8 1.8 0 0 1 1.673-.112l5.465 3.123c.446.223.335.669-.112 1l-5.354 3.123a1.528 1.528 0 0 1-1.673.112z" class="cls-11" data-name="Path 1946" transform="translate(-216.56 -192.885)"/>
                <path id="Path_1947" d="M325.395 271.277l-5.465-3.123c-.446-.223-.335-.669.112-1l5.354-3.123a1.8 1.8 0 0 1 1.673-.112l5.465 3.123c.446.223.335.669-.112 1l-5.354 3.123a1.788 1.788 0 0 1-1.673.112z" class="cls-11" data-name="Path 1947" transform="translate(-215.695 -192.378)"/>
                <path id="Path_1948" d="M268.795 230.077l-5.465-3.123c-.446-.223-.335-.669.112-1l5.354-3.123a1.8 1.8 0 0 1 1.673-.112l5.465 3.123c.446.223.335.669-.112 1l-5.354 3.123a1.811 1.811 0 0 1-1.673.112z" class="cls-11" data-name="Path 1948" transform="translate(-222.224 -197.131)"/>
                <path id="Path_1949" d="M261.095 225.677l-5.465-3.123c-.446-.223-.335-.669.112-1l5.354-3.123a1.8 1.8 0 0 1 1.673-.112l5.465 3.123c.446.223.335.669-.112 1l-5.354 3.123a1.788 1.788 0 0 1-1.673.112z" class="cls-11" data-name="Path 1949" transform="translate(-223.112 -197.638)"/>
                <path id="Path_1950" d="M254.141 221.658l-11.711-6.8c-.446-.223-.335-.669.112-1l5.354-3.123a1.8 1.8 0 0 1 1.673-.112l11.711 6.8c.446.223.335.669-.112 1l-5.354 3.123a1.811 1.811 0 0 1-1.673.112z" class="cls-11" data-name="Path 1950" transform="translate(-224.634 -198.526)"/>
                <path id="Path_1951" d="M259.21 216.12l-9.48-5.465c-.446-.223-.335-.669.112-1l5.354-3.123a1.8 1.8 0 0 1 1.673-.112l9.48 5.465c.446.223.335.669-.112 1l-5.354 3.123a1.788 1.788 0 0 1-1.673.112z" class="cls-11" data-name="Path 1951" transform="translate(-223.792 -199.011)"/>
                <path id="Path_1952" d="M276.295 234.377l-5.465-3.123c-.446-.223-.335-.669.112-1l5.354-3.123a1.8 1.8 0 0 1 1.673-.112l5.465 3.123c.446.223.335.669-.112 1l-5.354 3.123a1.528 1.528 0 0 1-1.673.112z" class="cls-11" data-name="Path 1952" transform="translate(-221.358 -196.635)"/>
                <path id="Path_1953" d="M283.795 238.777l-5.465-3.123c-.446-.223-.335-.669.112-1l5.354-3.123a1.8 1.8 0 0 1 1.673-.112l5.465 3.123c.446.223.335.669-.112 1l-5.354 3.123a1.788 1.788 0 0 1-1.673.112z" class="cls-11" data-name="Path 1953" transform="translate(-220.493 -196.127)"/>
                <path id="Path_1954" d="M291.295 243.077l-5.465-3.123c-.446-.223-.335-.669.112-1l5.354-3.123a1.8 1.8 0 0 1 1.673-.112l5.465 3.123c.446.223.335.669-.112 1l-5.354 3.123a1.528 1.528 0 0 1-1.673.112z" class="cls-11" data-name="Path 1954" transform="translate(-219.628 -195.631)"/>
                <path id="Path_1955" d="M298.895 247.477l-5.465-3.123c-.446-.223-.335-.669.112-1l5.354-3.123a1.8 1.8 0 0 1 1.673-.112l5.465 3.123c.446.223.335.669-.112 1l-5.354 3.123a1.8 1.8 0 0 1-1.673.112z" class="cls-11" data-name="Path 1955" transform="translate(-218.751 -195.123)"/>
                <path id="Path_1956" d="M306.395 251.777l-5.465-3.123c-.446-.223-.335-.669.112-1l5.354-3.123a1.8 1.8 0 0 1 1.673-.112l5.465 3.123c.446.223.335.669-.112 1l-5.354 3.123a1.528 1.528 0 0 1-1.673.112z" class="cls-11" data-name="Path 1956" transform="translate(-217.886 -194.627)"/>
                <path id="Path_1957" d="M313.895 256.177l-5.465-3.123c-.446-.223-.335-.669.112-1l5.354-3.123a1.8 1.8 0 0 1 1.673-.112l5.465 3.123c.446.223.335.669-.112 1l-5.354 3.123a1.788 1.788 0 0 1-1.673.112z" class="cls-11" data-name="Path 1957" transform="translate(-217.021 -194.12)"/>
                <path id="Path_1958" d="M321.495 260.477l-5.465-3.123c-.446-.223-.335-.669.112-1l5.354-3.123a1.8 1.8 0 0 1 1.673-.112l5.465 3.123c.446.223.335.669-.112 1l-5.354 3.123a1.537 1.537 0 0 1-1.673.112z" class="cls-11" data-name="Path 1958" transform="translate(-216.144 -193.624)"/>
                <path id="Path_1959" d="M328.995 264.877l-5.465-3.123c-.446-.223-.335-.669.112-1l5.354-3.123a1.8 1.8 0 0 1 1.673-.112l5.465 3.123c.446.223.335.669-.112 1l-5.354 3.123a1.788 1.788 0 0 1-1.673.112z" class="cls-11" data-name="Path 1959" transform="translate(-215.279 -193.116)"/>
                <path id="Path_1960" d="M336.495 269.177l-5.465-3.123c-.446-.223-.335-.669.112-1l5.354-3.123a1.8 1.8 0 0 1 1.673-.112l5.465 3.123c.446.223.335.669-.112 1l-5.354 3.123a1.528 1.528 0 0 1-1.673.112z" class="cls-11" data-name="Path 1960" transform="translate(-214.414 -192.62)"/>
                <path id="Path_1961" d="M350.552 277.358l-11.823-6.8c-.446-.223-.335-.669.112-1l5.354-3.123a1.8 1.8 0 0 1 1.673-.112l11.823 6.8c.446.223.335.669-.112 1l-5.354 3.123a1.788 1.788 0 0 1-1.673.112z" class="cls-11" data-name="Path 1961" transform="translate(-213.526 -192.101)"/>
                <path id="Path_1962" d="M365.068 268.754l-10.038-5.8c-.446-.223-.335-.669.112-1l5.354-3.123a1.8 1.8 0 0 1 1.673-.112l10.038 5.8c.446.223.335.669-.112 1l-5.354 3.123a1.8 1.8 0 0 1-1.673.112z" class="cls-11" data-name="Path 1962" transform="translate(-211.646 -192.978)"/>
                <path id="Path_1963" d="M289.495 233.577l-5.465-3.123c-.446-.223-.335-.669.112-1l5.354-3.123a1.8 1.8 0 0 1 1.673-.112l5.465 3.123c.446.223.335.669-.112 1l-5.354 3.123a1.8 1.8 0 0 1-1.673.112z" class="cls-11" data-name="Path 1963" transform="translate(-219.836 -196.727)"/>
                <path id="Path_1964" d="M281.795 229.077l-5.465-3.123c-.446-.223-.335-.669.112-1l5.354-3.123a1.8 1.8 0 0 1 1.673-.112l5.465 3.123c.446.223.335.669-.112 1l-5.354 3.123c-.558.335-1.339.447-1.673.112z" class="cls-11" data-name="Path 1964" transform="translate(-220.724 -197.246)"/>
                <path id="Path_1965" d="M273.995 224.677l-5.465-3.123c-.446-.223-.335-.669.112-1l5.354-3.123a1.8 1.8 0 0 1 1.673-.112l5.465 3.123c.446.223.335.669-.112 1l-5.354 3.123a1.788 1.788 0 0 1-1.673.112z" class="cls-11" data-name="Path 1965" transform="translate(-221.624 -197.753)"/>
                <path id="Path_1966" d="M266.295 220.177l-5.465-3.123c-.446-.223-.335-.669.112-1l5.354-3.123a1.8 1.8 0 0 1 1.673-.112l5.465 3.123c.446.223.335.669-.112 1l-5.354 3.123a1.528 1.528 0 0 1-1.673.112z" class="cls-11" data-name="Path 1966" transform="translate(-222.512 -198.273)"/>
                <path id="Path_1967" d="M296.995 237.877l-5.465-3.123c-.446-.223-.335-.669.112-1l5.354-3.123a1.8 1.8 0 0 1 1.673-.112l5.465 3.123c.446.223.335.669-.112 1l-5.354 3.123a1.528 1.528 0 0 1-1.673.112z" class="cls-11" data-name="Path 1967" transform="translate(-218.971 -196.231)"/>
                <path id="Path_1968" d="M304.495 242.277l-5.465-3.123c-.446-.223-.335-.669.112-1l5.354-3.123a1.8 1.8 0 0 1 1.673-.112l5.465 3.123c.446.223.335.669-.112 1l-5.354 3.123a1.788 1.788 0 0 1-1.673.112z" class="cls-11" data-name="Path 1968" transform="translate(-218.105 -195.723)"/>
                <path id="Path_1969" d="M312.095 246.577l-5.465-3.123c-.446-.223-.335-.669.112-1l5.354-3.123a1.8 1.8 0 0 1 1.673-.112l5.465 3.123c.446.223.335.669-.112 1l-5.354 3.123a1.537 1.537 0 0 1-1.673.112z" class="cls-11" data-name="Path 1969" transform="translate(-217.229 -195.227)"/>
                <path id="Path_1970" d="M319.595 250.977l-5.465-3.123c-.446-.223-.335-.669.112-1l5.354-3.123a1.8 1.8 0 0 1 1.673-.112l5.465 3.123c.446.223.335.669-.112 1l-5.354 3.123a1.788 1.788 0 0 1-1.673.112z" class="cls-11" data-name="Path 1970" transform="translate(-216.364 -194.72)"/>
                <path id="Path_1971" d="M327.095 255.277l-5.465-3.123c-.446-.223-.335-.669.112-1l5.354-3.123a1.8 1.8 0 0 1 1.673-.112l5.465 3.123c.446.223.335.669-.112 1l-5.354 3.123a1.528 1.528 0 0 1-1.673.112z" class="cls-11" data-name="Path 1971" transform="translate(-215.498 -194.224)"/>
                <path id="Path_1972" d="M334.695 259.677l-5.465-3.123c-.446-.223-.335-.669.112-1l5.354-3.123a1.8 1.8 0 0 1 1.673-.112l5.465 3.123c.446.223.335.669-.112 1l-5.354 3.123a1.811 1.811 0 0 1-1.673.112z" class="cls-11" data-name="Path 1972" transform="translate(-214.622 -193.716)"/>
                <path id="Path_1973" d="M342.195 263.977l-5.465-3.123c-.446-.223-.335-.669.112-1l5.354-3.123a1.8 1.8 0 0 1 1.673-.112l5.465 3.123c.446.223.335.669-.112 1l-5.354 3.123a1.528 1.528 0 0 1-1.673.112z" class="cls-11" data-name="Path 1973" transform="translate(-213.757 -193.22)"/>
                <path id="Path_1974" d="M349.695 268.377l-5.465-3.123c-.446-.223-.335-.669.112-1l5.354-3.123a1.8 1.8 0 0 1 1.673-.112l5.465 3.123c.446.223.335.669-.112 1l-5.354 3.123a1.788 1.788 0 0 1-1.673.112z" class="cls-11" data-name="Path 1974" transform="translate(-212.891 -192.712)"/>
                <path id="Path_1975" d="M357.195 272.677l-5.465-3.123c-.446-.223-.335-.669.112-1l5.354-3.123a1.8 1.8 0 0 1 1.673-.112l5.465 3.123c.446.223.335.669-.112 1l-5.354 3.123a1.788 1.788 0 0 1-1.673.112z" class="cls-11" data-name="Path 1975" transform="translate(-212.026 -192.216)"/>
                <path id="Path_1976" d="M285.495 222.777l-5.465-3.123c-.446-.223-.335-.669.112-1l5.354-3.123a1.8 1.8 0 0 1 1.673-.112l5.465 3.123c.446.223.335.669-.112 1l-5.354 3.123a1.528 1.528 0 0 1-1.673.112z" class="cls-11" data-name="Path 1976" transform="translate(-220.297 -197.973)"/>
                <path id="Path_1977" d="M277.995 218.477l-5.465-3.123c-.446-.223-.335-.669.112-1l5.354-3.123a1.8 1.8 0 0 1 1.673-.112l5.465 3.123c.446.223.335.669-.112 1l-5.354 3.123a1.788 1.788 0 0 1-1.673.112z" class="cls-11" data-name="Path 1977" transform="translate(-221.162 -198.469)"/>
                <path id="Path_1978" d="M270.495 214.177l-5.465-3.123c-.446-.223-.335-.669.112-1l5.354-3.123a1.8 1.8 0 0 1 1.673-.112l5.465 3.123c.446.223.335.669-.112 1l-5.354 3.123a1.788 1.788 0 0 1-1.673.112z" class="cls-11" data-name="Path 1978" transform="translate(-222.027 -198.965)"/>
                <path id="Path_1979" d="M262.995 209.877l-5.465-3.123c-.446-.223-.335-.669.112-1l5.354-3.123a1.8 1.8 0 0 1 1.673-.112l5.465 3.123c.446.223.335.669-.111 1l-5.242 3.123a2.035 2.035 0 0 1-1.786.112z" class="cls-11" data-name="Path 1979" transform="translate(-222.893 -199.461)"/>
                <path id="Path_1980" d="M270.695 205.158l-5.465-3.123c-.446-.223-.335-.669.112-1l1.785-1a1.8 1.8 0 0 1 1.673-.112l5.465 3.123c.446.223.335.669-.112 1l-1.785 1a1.788 1.788 0 0 1-1.673.112z" class="cls-11" data-name="Path 1980" transform="translate(-222.004 -199.761)"/>
                <path id="Path_1981" d="M280.495 210.858l-5.465-3.123c-.446-.223-.335-.669.112-1l1.785-1a1.8 1.8 0 0 1 1.673-.112l5.465 3.123c.446.223.335.669-.112 1l-1.785 1a1.788 1.788 0 0 1-1.673.112z" class="cls-11" data-name="Path 1981" transform="translate(-220.874 -199.103)"/>
                <path id="Path_1982" d="M287.995 215.158l-5.465-3.123c-.446-.223-.335-.669.112-1l1.785-1a1.8 1.8 0 0 1 1.673-.112l5.465 3.123c.446.223.335.669-.112 1l-1.785 1a1.8 1.8 0 0 1-1.673.112z" class="cls-11" data-name="Path 1982" transform="translate(-220.009 -198.607)"/>
                <path id="Path_1983" d="M295.395 219.458l-5.465-3.123c-.446-.223-.335-.669.112-1l1.785-1a1.8 1.8 0 0 1 1.673-.112l5.465 3.123c.446.223.335.669-.112 1l-1.785 1a1.788 1.788 0 0 1-1.673.112z" class="cls-11" data-name="Path 1983" transform="translate(-219.155 -198.111)"/>
                <path id="Path_1984" d="M302.895 223.758l-5.465-3.123c-.446-.223-.335-.669.112-1l1.785-1a1.8 1.8 0 0 1 1.673-.112l5.465 3.123c.446.223.335.669-.112 1l-1.785 1a1.788 1.788 0 0 1-1.673.112z" class="cls-11" data-name="Path 1984" transform="translate(-218.29 -197.615)"/>
                <path id="Path_1985" d="M344.595 247.758l-5.465-3.123c-.446-.223-.335-.669.112-1l1.785-1a1.8 1.8 0 0 1 1.673-.112l5.465 3.123c.446.223.335.669-.112 1l-1.785 1c-.558.335-1.339.447-1.673.112z" class="cls-11" data-name="Path 1985" transform="translate(-213.48 -194.847)"/>
                <path id="Path_1986" d="M351.995 252.058l-5.465-3.123c-.446-.223-.335-.669.112-1l1.785-1a1.8 1.8 0 0 1 1.673-.112l5.465 3.123c.446.223.335.669-.112 1l-1.785 1a1.528 1.528 0 0 1-1.673.112z" class="cls-11" data-name="Path 1986" transform="translate(-212.626 -194.351)"/>
                <path id="Path_1987" d="M359.495 256.47l-5.465-3.235c-.446-.223-.335-.669.112-1l1.785-1a1.8 1.8 0 0 1 1.673-.112l5.465 3.123c.446.223.335.669-.112 1l-1.785 1a1.855 1.855 0 0 1-1.673.224z" class="cls-11" data-name="Path 1987" transform="translate(-211.761 -193.854)"/>
                <path id="Path_1988" d="M366.895 260.758l-5.465-3.123c-.446-.223-.335-.669.112-1l1.785-1a1.8 1.8 0 0 1 1.673-.112l5.465 3.123c.446.223.335.669-.112 1l-1.785 1a1.788 1.788 0 0 1-1.673.112z" class="cls-11" data-name="Path 1988" transform="translate(-210.907 -193.347)"/>
                <path id="Path_1989" d="M292.995 227.177l-5.465-3.123c-.446-.223-.335-.669.112-1l5.354-3.123a1.8 1.8 0 0 1 1.673-.112l5.465 3.123c.446.223.335.669-.112 1l-5.354 3.123a1.788 1.788 0 0 1-1.673.112z" class="cls-11" data-name="Path 1989" transform="translate(-219.432 -197.465)"/>
                <path id="Path_1990" d="M300.595 231.477l-5.465-3.123c-.446-.223-.335-.669.112-1l5.354-3.123a1.8 1.8 0 0 1 1.673-.112l5.465 3.123c.446.223.335.669-.112 1l-5.354 3.123a1.537 1.537 0 0 1-1.673.112z" class="cls-11" data-name="Path 1990" transform="translate(-218.555 -196.969)"/>
                <path id="Path_1991" d="M308.095 235.877l-5.465-3.123c-.446-.223-.335-.669.112-1l5.354-3.123a1.8 1.8 0 0 1 1.673-.112l5.465 3.123c.446.223.335.669-.112 1l-5.354 3.123a1.788 1.788 0 0 1-1.673.112z" class="cls-11" data-name="Path 1991" transform="translate(-217.69 -196.461)"/>
                <path id="Path_1992" d="M315.595 240.177l-5.465-3.123c-.446-.223-.335-.669.112-1l5.354-3.123a1.8 1.8 0 0 1 1.673-.112l5.465 3.123c.446.223.335.669-.112 1l-5.354 3.123a1.528 1.528 0 0 1-1.673.112z" class="cls-11" data-name="Path 1992" transform="translate(-216.825 -195.965)"/>
                <path id="Path_1993" d="M323.195 244.577l-5.465-3.123c-.446-.223-.335-.669.112-1l5.354-3.123a1.8 1.8 0 0 1 1.673-.112l5.465 3.123c.446.223.335.669-.112 1l-5.354 3.123a1.811 1.811 0 0 1-1.673.112z" class="cls-11" data-name="Path 1993" transform="translate(-215.948 -195.458)"/>
                <path id="Path_1994" d="M330.695 248.877l-5.465-3.123c-.446-.223-.335-.669.112-1l5.354-3.123a1.8 1.8 0 0 1 1.673-.112l5.465 3.123c.446.223.335.669-.112 1l-5.354 3.123a1.528 1.528 0 0 1-1.673.112z" class="cls-11" data-name="Path 1994" transform="translate(-215.083 -194.962)"/>
                <path id="Path_1995" d="M338.195 253.277l-5.465-3.123c-.446-.223-.335-.669.112-1l5.354-3.123a1.8 1.8 0 0 1 1.673-.112l5.465 3.123c.446.223.335.669-.112 1l-5.354 3.123a1.788 1.788 0 0 1-1.673.112z" class="cls-11" data-name="Path 1995" transform="translate(-214.218 -194.454)"/>
                <path id="Path_1996" d="M345.695 257.577l-5.465-3.123c-.446-.223-.335-.669.112-1l5.354-3.123a1.8 1.8 0 0 1 1.673-.112l5.465 3.123c.446.223.335.669-.112 1l-5.354 3.123a1.788 1.788 0 0 1-1.673.112z" class="cls-11" data-name="Path 1996" transform="translate(-213.353 -193.958)"/>
                <path id="Path_1997" d="M353.295 261.977l-5.465-3.123c-.446-.223-.335-.669.112-1l5.354-3.123a1.8 1.8 0 0 1 1.673-.112l5.465 3.123c.446.223.335.669-.112 1l-5.354 3.123a1.788 1.788 0 0 1-1.673.112z" class="cls-11" data-name="Path 1997" transform="translate(-212.476 -193.451)"/>
                <path id="Path_1998" d="M251.09 228.312l-16.061-9.257c-.446-.223-.335-.669.112-1l5.354-3.123a1.8 1.8 0 0 1 1.673-.112l16.061 9.257c.446.223.335.669-.112 1l-5.354 3.123a1.528 1.528 0 0 1-1.673.112z" class="cls-11" data-name="Path 1998" transform="translate(-225.488 -198.042)"/>
                <path id="Path_1999" d="M343.59 281.712l-16.061-9.257c-.446-.223-.335-.669.112-1l5.354-3.123a1.8 1.8 0 0 1 1.673-.112l16.061 9.257c.446.223.335.669-.112 1l-5.354 3.123a1.528 1.528 0 0 1-1.673.112z" class="cls-11" data-name="Path 1999" transform="translate(-214.818 -191.882)"/>
                <path id="Path_2000" d="M312.395 273.435l-5.465-3.123c-.446-.223-.335-.669.112-1l6.469-3.681a1.8 1.8 0 0 1 1.673-.112l5.465 3.123c.446.223.335.669-.112 1l-6.469 3.681a1.788 1.788 0 0 1-1.673.112z" class="cls-11" data-name="Path 2000" transform="translate(-217.194 -192.193)"/>
                <path id="Path_2001" d="M258.029 242.031l-8.7-5.019c-.446-.223-.335-.669.112-1l6.469-3.681a1.8 1.8 0 0 1 1.673-.112l8.7 5.019c.446.223.335.669-.112 1l-6.471 3.682a1.788 1.788 0 0 1-1.671.111z" class="cls-11" data-name="Path 2001" transform="translate(-223.838 -196.035)"/>
                <path id="Path_2002" d="M305.429 269.431l-8.7-5.019c-.446-.223-.335-.669.112-1l6.469-3.681a1.8 1.8 0 0 1 1.673-.112l8.7 5.019c.446.223.335.669-.111 1l-6.472 3.682a1.788 1.788 0 0 1-1.671.111z" class="cls-11" data-name="Path 2002" transform="translate(-218.371 -192.874)"/>
                <path id="Path_2003" d="M268.929 248.331l-8.7-5.019c-.446-.223-.335-.669.112-1l6.469-3.681a1.8 1.8 0 0 1 1.673-.112l8.7 5.019c.446.223.335.669-.112 1l-6.471 3.682a1.8 1.8 0 0 1-1.671.111z" class="cls-11" data-name="Path 2003" transform="translate(-222.581 -195.308)"/>
                <path id="Path_2004" d="M268.454 238.5l37.81 21.861c.446.223.446.669 0 1l-6.581 3.792a2.175 2.175 0 0 1-1.673 0L260.2 243.3z" class="cls-11" data-name="Path 2004" transform="translate(-222.552 -195.292)"/>
                <path id="Path_2005" d="M333.263 280.408l6.023 3.458c.335.223.335.558-.112.781l-2.677 1.562a2.175 2.175 0 0 1-1.45.112l-6.023-3.458c-.335-.223-.335-.558.112-.781l2.677-1.562a2.219 2.219 0 0 1 1.45-.112z" class="cls-11" data-name="Path 2005" transform="translate(-214.64 -190.466)"/>
                <path id="Path_2006" d="M325.663 276.116l6.023 3.458c.335.223.335.558-.112.781l-2.677 1.562a2.175 2.175 0 0 1-1.45.112l-6.023-3.458c-.335-.223-.335-.558.112-.781l2.677-1.561a1.388 1.388 0 0 1 1.45-.113z" class="cls-11" data-name="Path 2006" transform="translate(-215.517 -190.971)"/>
                <path id="Path_2007" d="M318.163 271.716l6.023 3.458c.335.223.335.558-.112.781l-2.677 1.561a2.175 2.175 0 0 1-1.45.112l-6.023-3.458c-.335-.223-.335-.558.112-.781l2.677-1.562a1.383 1.383 0 0 1 1.45-.111z" class="cls-11" data-name="Path 2007" transform="translate(-216.382 -191.478)"/>
                <path id="Path_2008" d="M329.863 273.716l6.023 3.458c.335.223.335.558-.112.781l-2.677 1.561a2.175 2.175 0 0 1-1.45.112l-6.023-3.458c-.335-.223-.335-.558.112-.781l2.677-1.562a1.383 1.383 0 0 1 1.45-.111z" class="cls-11" data-name="Path 2008" transform="translate(-215.032 -191.247)"/>
            </g>
            <g id="Group_713" class="cls-10" data-name="Group 713" transform="translate(97.644 150.042)">
                <path id="Path_2009" d="M232.195 227.135l-5.465-3.123c-.446-.223-.335-.669.112-1l6.469-3.681a1.8 1.8 0 0 1 1.673-.112l5.465 3.123c.446.223.335.669-.112 1l-6.469 3.681a2.188 2.188 0 0 1-1.673.112z" class="cls-11" data-name="Path 2009" transform="translate(-226.445 -197.534)"/>
                <path id="Path_2010" d="M239.695 231.435l-5.465-3.123c-.446-.223-.335-.669.112-1l6.469-3.681a1.8 1.8 0 0 1 1.673-.112l5.465 3.123c.446.223.335.669-.112 1l-6.469 3.681a1.788 1.788 0 0 1-1.673.112z" class="cls-11" data-name="Path 2010" transform="translate(-225.58 -197.038)"/>
                <path id="Path_2011" d="M247.195 235.735l-5.465-3.123c-.446-.223-.335-.669.112-1l6.469-3.681a1.8 1.8 0 0 1 1.673-.112l5.465 3.123c.446.223.335.669-.112 1l-6.469 3.681a1.528 1.528 0 0 1-1.673.112z" class="cls-11" data-name="Path 2011" transform="translate(-224.715 -196.542)"/>
                <path id="Path_2012" d="M257.695 232.177l-5.465-3.123c-.446-.223-.335-.669.112-1l5.354-3.123a1.8 1.8 0 0 1 1.673-.112l5.465 3.123c.446.223.335.669-.112 1l-5.354 3.123a1.811 1.811 0 0 1-1.673.112z" class="cls-11" data-name="Path 2012" transform="translate(-223.504 -196.888)"/>
                <path id="Path_2013" d="M265.195 236.477l-5.465-3.123c-.446-.223-.335-.669.112-1l5.354-3.123a1.8 1.8 0 0 1 1.673-.112l5.465 3.123c.446.223.335.669-.112 1l-5.354 3.123a1.788 1.788 0 0 1-1.673.112z" class="cls-11" data-name="Path 2013" transform="translate(-222.639 -196.392)"/>
                <path id="Path_2014" d="M272.695 240.877l-5.465-3.123c-.446-.223-.335-.669.112-1l5.354-3.123a1.8 1.8 0 0 1 1.673-.112l5.465 3.123c.446.223.335.669-.112 1l-5.354 3.123a2.188 2.188 0 0 1-1.673.112z" class="cls-11" data-name="Path 2014" transform="translate(-221.774 -195.885)"/>
                <path id="Path_2015" d="M280.195 245.177l-5.465-3.123c-.446-.223-.335-.669.112-1l5.354-3.123a1.8 1.8 0 0 1 1.673-.112l5.465 3.123c.446.223.335.669-.112 1l-5.354 3.123a1.788 1.788 0 0 1-1.673.112z" class="cls-11" data-name="Path 2015" transform="translate(-220.908 -195.389)"/>
                <path id="Path_2016" d="M287.795 249.477l-5.465-3.123c-.446-.223-.335-.669.112-1l5.354-3.123a1.8 1.8 0 0 1 1.673-.112l5.465 3.123c.446.223.335.669-.112 1l-5.354 3.123a1.528 1.528 0 0 1-1.673.112z" class="cls-11" data-name="Path 2016" transform="translate(-220.032 -194.893)"/>
                <path id="Path_2017" d="M295.295 253.877l-5.465-3.123c-.446-.223-.335-.669.112-1l5.354-3.123a1.8 1.8 0 0 1 1.673-.112l5.465 3.123c.446.223.335.669-.112 1l-5.354 3.123a1.788 1.788 0 0 1-1.673.112z" class="cls-11" data-name="Path 2017" transform="translate(-219.167 -194.385)"/>
                <path id="Path_2018" d="M302.795 258.177l-5.465-3.123c-.446-.223-.335-.669.112-1l5.354-3.123a1.8 1.8 0 0 1 1.673-.112l5.465 3.123c.446.223.335.669-.112 1l-5.354 3.123a1.528 1.528 0 0 1-1.673.112z" class="cls-11" data-name="Path 2018" transform="translate(-218.302 -193.889)"/>
                <path id="Path_2019" d="M310.395 262.577l-5.465-3.123c-.446-.223-.335-.669.112-1l5.354-3.123a1.8 1.8 0 0 1 1.673-.112l5.465 3.123c.446.223.335.669-.112 1l-5.354 3.123a1.8 1.8 0 0 1-1.673.112z" class="cls-11" data-name="Path 2019" transform="translate(-217.425 -193.382)"/>
                <path id="Path_2020" d="M317.895 266.877l-5.465-3.123c-.446-.223-.335-.669.112-1l5.354-3.123a1.8 1.8 0 0 1 1.673-.112l5.465 3.123c.446.223.335.669-.112 1l-5.354 3.123a1.528 1.528 0 0 1-1.673.112z" class="cls-11" data-name="Path 2020" transform="translate(-216.56 -192.885)"/>
                <path id="Path_2021" d="M325.395 271.277l-5.465-3.123c-.446-.223-.335-.669.112-1l5.354-3.123a1.8 1.8 0 0 1 1.673-.112l5.465 3.123c.446.223.335.669-.112 1l-5.354 3.123a1.788 1.788 0 0 1-1.673.112z" class="cls-11" data-name="Path 2021" transform="translate(-215.695 -192.378)"/>
                <path id="Path_2022" d="M268.795 230.077l-5.465-3.123c-.446-.223-.335-.669.112-1l5.354-3.123a1.8 1.8 0 0 1 1.673-.112l5.465 3.123c.446.223.335.669-.112 1l-5.354 3.123a1.811 1.811 0 0 1-1.673.112z" class="cls-11" data-name="Path 2022" transform="translate(-222.224 -197.131)"/>
                <path id="Path_2023" d="M261.095 225.677l-5.465-3.123c-.446-.223-.335-.669.112-1l5.354-3.123a1.8 1.8 0 0 1 1.673-.112l5.465 3.123c.446.223.335.669-.112 1l-5.354 3.123a1.788 1.788 0 0 1-1.673.112z" class="cls-11" data-name="Path 2023" transform="translate(-223.112 -197.638)"/>
                <path id="Path_2024" d="M254.141 221.658l-11.711-6.8c-.446-.223-.335-.669.112-1l5.354-3.123a1.8 1.8 0 0 1 1.673-.112l11.711 6.8c.446.223.335.669-.112 1l-5.354 3.123a1.811 1.811 0 0 1-1.673.112z" class="cls-11" data-name="Path 2024" transform="translate(-224.634 -198.526)"/>
                <path id="Path_2025" d="M259.21 216.12l-9.48-5.465c-.446-.223-.335-.669.112-1l5.354-3.123a1.8 1.8 0 0 1 1.673-.112l9.48 5.465c.446.223.335.669-.112 1l-5.354 3.123a1.788 1.788 0 0 1-1.673.112z" class="cls-11" data-name="Path 2025" transform="translate(-223.792 -199.011)"/>
                <path id="Path_2026" d="M276.295 234.377l-5.465-3.123c-.446-.223-.335-.669.112-1l5.354-3.123a1.8 1.8 0 0 1 1.673-.112l5.465 3.123c.446.223.335.669-.112 1l-5.354 3.123a1.528 1.528 0 0 1-1.673.112z" class="cls-11" data-name="Path 2026" transform="translate(-221.358 -196.635)"/>
                <path id="Path_2027" d="M283.795 238.777l-5.465-3.123c-.446-.223-.335-.669.112-1l5.354-3.123a1.8 1.8 0 0 1 1.673-.112l5.465 3.123c.446.223.335.669-.112 1l-5.354 3.123a1.788 1.788 0 0 1-1.673.112z" class="cls-11" data-name="Path 2027" transform="translate(-220.493 -196.127)"/>
                <path id="Path_2028" d="M291.295 243.077l-5.465-3.123c-.446-.223-.335-.669.112-1l5.354-3.123a1.8 1.8 0 0 1 1.673-.112l5.465 3.123c.446.223.335.669-.112 1l-5.354 3.123a1.528 1.528 0 0 1-1.673.112z" class="cls-11" data-name="Path 2028" transform="translate(-219.628 -195.631)"/>
                <path id="Path_2029" d="M298.895 247.477l-5.465-3.123c-.446-.223-.335-.669.112-1l5.354-3.123a1.8 1.8 0 0 1 1.673-.112l5.465 3.123c.446.223.335.669-.112 1l-5.354 3.123a1.8 1.8 0 0 1-1.673.112z" class="cls-11" data-name="Path 2029" transform="translate(-218.751 -195.123)"/>
                <path id="Path_2030" d="M306.395 251.777l-5.465-3.123c-.446-.223-.335-.669.112-1l5.354-3.123a1.8 1.8 0 0 1 1.673-.112l5.465 3.123c.446.223.335.669-.112 1l-5.354 3.123a1.528 1.528 0 0 1-1.673.112z" class="cls-11" data-name="Path 2030" transform="translate(-217.886 -194.627)"/>
                <path id="Path_2031" d="M313.895 256.177l-5.465-3.123c-.446-.223-.335-.669.112-1l5.354-3.123a1.8 1.8 0 0 1 1.673-.112l5.465 3.123c.446.223.335.669-.112 1l-5.354 3.123a1.788 1.788 0 0 1-1.673.112z" class="cls-11" data-name="Path 2031" transform="translate(-217.021 -194.12)"/>
                <path id="Path_2032" d="M321.495 260.477l-5.465-3.123c-.446-.223-.335-.669.112-1l5.354-3.123a1.8 1.8 0 0 1 1.673-.112l5.465 3.123c.446.223.335.669-.112 1l-5.354 3.123a1.537 1.537 0 0 1-1.673.112z" class="cls-11" data-name="Path 2032" transform="translate(-216.144 -193.624)"/>
                <path id="Path_2033" d="M328.995 264.877l-5.465-3.123c-.446-.223-.335-.669.112-1l5.354-3.123a1.8 1.8 0 0 1 1.673-.112l5.465 3.123c.446.223.335.669-.112 1l-5.354 3.123a1.788 1.788 0 0 1-1.673.112z" class="cls-11" data-name="Path 2033" transform="translate(-215.279 -193.116)"/>
                <path id="Path_2034" d="M336.495 269.177l-5.465-3.123c-.446-.223-.335-.669.112-1l5.354-3.123a1.8 1.8 0 0 1 1.673-.112l5.465 3.123c.446.223.335.669-.112 1l-5.354 3.123a1.528 1.528 0 0 1-1.673.112z" class="cls-11" data-name="Path 2034" transform="translate(-214.414 -192.62)"/>
                <path id="Path_2035" d="M350.552 277.358l-11.823-6.8c-.446-.223-.335-.669.112-1l5.354-3.123a1.8 1.8 0 0 1 1.673-.112l11.823 6.8c.446.223.335.669-.112 1l-5.354 3.123a1.788 1.788 0 0 1-1.673.112z" class="cls-11" data-name="Path 2035" transform="translate(-213.526 -192.101)"/>
                <path id="Path_2036" d="M365.068 268.754l-10.038-5.8c-.446-.223-.335-.669.112-1l5.354-3.123a1.8 1.8 0 0 1 1.673-.112l10.038 5.8c.446.223.335.669-.112 1l-5.354 3.123a1.8 1.8 0 0 1-1.673.112z" class="cls-11" data-name="Path 2036" transform="translate(-211.646 -192.978)"/>
                <path id="Path_2037" d="M289.495 233.577l-5.465-3.123c-.446-.223-.335-.669.112-1l5.354-3.123a1.8 1.8 0 0 1 1.673-.112l5.465 3.123c.446.223.335.669-.112 1l-5.354 3.123a1.8 1.8 0 0 1-1.673.112z" class="cls-11" data-name="Path 2037" transform="translate(-219.836 -196.727)"/>
                <path id="Path_2038" d="M281.795 229.077l-5.465-3.123c-.446-.223-.335-.669.112-1l5.354-3.123a1.8 1.8 0 0 1 1.673-.112l5.465 3.123c.446.223.335.669-.112 1l-5.354 3.123c-.558.335-1.339.447-1.673.112z" class="cls-11" data-name="Path 2038" transform="translate(-220.724 -197.246)"/>
                <path id="Path_2039" d="M273.995 224.677l-5.465-3.123c-.446-.223-.335-.669.112-1l5.354-3.123a1.8 1.8 0 0 1 1.673-.112l5.465 3.123c.446.223.335.669-.112 1l-5.354 3.123a1.788 1.788 0 0 1-1.673.112z" class="cls-11" data-name="Path 2039" transform="translate(-221.624 -197.753)"/>
                <path id="Path_2040" d="M266.295 220.177l-5.465-3.123c-.446-.223-.335-.669.112-1l5.354-3.123a1.8 1.8 0 0 1 1.673-.112l5.465 3.123c.446.223.335.669-.112 1l-5.354 3.123a1.528 1.528 0 0 1-1.673.112z" class="cls-11" data-name="Path 2040" transform="translate(-222.512 -198.273)"/>
                <path id="Path_2041" d="M296.995 237.877l-5.465-3.123c-.446-.223-.335-.669.112-1l5.354-3.123a1.8 1.8 0 0 1 1.673-.112l5.465 3.123c.446.223.335.669-.112 1l-5.354 3.123a1.528 1.528 0 0 1-1.673.112z" class="cls-11" data-name="Path 2041" transform="translate(-218.971 -196.231)"/>
                <path id="Path_2042" d="M304.495 242.277l-5.465-3.123c-.446-.223-.335-.669.112-1l5.354-3.123a1.8 1.8 0 0 1 1.673-.112l5.465 3.123c.446.223.335.669-.112 1l-5.354 3.123a1.788 1.788 0 0 1-1.673.112z" class="cls-11" data-name="Path 2042" transform="translate(-218.105 -195.723)"/>
                <path id="Path_2043" d="M312.095 246.577l-5.465-3.123c-.446-.223-.335-.669.112-1l5.354-3.123a1.8 1.8 0 0 1 1.673-.112l5.465 3.123c.446.223.335.669-.112 1l-5.354 3.123a1.537 1.537 0 0 1-1.673.112z" class="cls-11" data-name="Path 2043" transform="translate(-217.229 -195.227)"/>
                <path id="Path_2044" d="M319.595 250.977l-5.465-3.123c-.446-.223-.335-.669.112-1l5.354-3.123a1.8 1.8 0 0 1 1.673-.112l5.465 3.123c.446.223.335.669-.112 1l-5.354 3.123a1.788 1.788 0 0 1-1.673.112z" class="cls-11" data-name="Path 2044" transform="translate(-216.364 -194.72)"/>
                <path id="Path_2045" d="M327.095 255.277l-5.465-3.123c-.446-.223-.335-.669.112-1l5.354-3.123a1.8 1.8 0 0 1 1.673-.112l5.465 3.123c.446.223.335.669-.112 1l-5.354 3.123a1.528 1.528 0 0 1-1.673.112z" class="cls-11" data-name="Path 2045" transform="translate(-215.498 -194.224)"/>
                <path id="Path_2046" d="M334.695 259.677l-5.465-3.123c-.446-.223-.335-.669.112-1l5.354-3.123a1.8 1.8 0 0 1 1.673-.112l5.465 3.123c.446.223.335.669-.112 1l-5.354 3.123a1.811 1.811 0 0 1-1.673.112z" class="cls-11" data-name="Path 2046" transform="translate(-214.622 -193.716)"/>
                <path id="Path_2047" d="M342.195 263.977l-5.465-3.123c-.446-.223-.335-.669.112-1l5.354-3.123a1.8 1.8 0 0 1 1.673-.112l5.465 3.123c.446.223.335.669-.112 1l-5.354 3.123a1.528 1.528 0 0 1-1.673.112z" class="cls-11" data-name="Path 2047" transform="translate(-213.757 -193.22)"/>
                <path id="Path_2048" d="M349.695 268.377l-5.465-3.123c-.446-.223-.335-.669.112-1l5.354-3.123a1.8 1.8 0 0 1 1.673-.112l5.465 3.123c.446.223.335.669-.112 1l-5.354 3.123a1.788 1.788 0 0 1-1.673.112z" class="cls-11" data-name="Path 2048" transform="translate(-212.891 -192.712)"/>
                <path id="Path_2049" d="M357.195 272.677l-5.465-3.123c-.446-.223-.335-.669.112-1l5.354-3.123a1.8 1.8 0 0 1 1.673-.112l5.465 3.123c.446.223.335.669-.112 1l-5.354 3.123a1.788 1.788 0 0 1-1.673.112z" class="cls-11" data-name="Path 2049" transform="translate(-212.026 -192.216)"/>
                <path id="Path_2050" d="M285.495 222.777l-5.465-3.123c-.446-.223-.335-.669.112-1l5.354-3.123a1.8 1.8 0 0 1 1.673-.112l5.465 3.123c.446.223.335.669-.112 1l-5.354 3.123a1.528 1.528 0 0 1-1.673.112z" class="cls-11" data-name="Path 2050" transform="translate(-220.297 -197.973)"/>
                <path id="Path_2051" d="M277.995 218.477l-5.465-3.123c-.446-.223-.335-.669.112-1l5.354-3.123a1.8 1.8 0 0 1 1.673-.112l5.465 3.123c.446.223.335.669-.112 1l-5.354 3.123a1.788 1.788 0 0 1-1.673.112z" class="cls-11" data-name="Path 2051" transform="translate(-221.162 -198.469)"/>
                <path id="Path_2052" d="M270.495 214.177l-5.465-3.123c-.446-.223-.335-.669.112-1l5.354-3.123a1.8 1.8 0 0 1 1.673-.112l5.465 3.123c.446.223.335.669-.112 1l-5.354 3.123a1.788 1.788 0 0 1-1.673.112z" class="cls-11" data-name="Path 2052" transform="translate(-222.027 -198.965)"/>
                <path id="Path_2053" d="M262.995 209.877l-5.465-3.123c-.446-.223-.335-.669.112-1l5.354-3.123a1.8 1.8 0 0 1 1.673-.112l5.465 3.123c.446.223.335.669-.111 1l-5.242 3.123a2.035 2.035 0 0 1-1.786.112z" class="cls-11" data-name="Path 2053" transform="translate(-222.893 -199.461)"/>
                <path id="Path_2054" d="M270.695 205.158l-5.465-3.123c-.446-.223-.335-.669.112-1l1.785-1a1.8 1.8 0 0 1 1.673-.112l5.465 3.123c.446.223.335.669-.112 1l-1.785 1a1.788 1.788 0 0 1-1.673.112z" class="cls-11" data-name="Path 2054" transform="translate(-222.004 -199.761)"/>
                <path id="Path_2055" d="M280.495 210.858l-5.465-3.123c-.446-.223-.335-.669.112-1l1.785-1a1.8 1.8 0 0 1 1.673-.112l5.465 3.123c.446.223.335.669-.112 1l-1.785 1a1.788 1.788 0 0 1-1.673.112z" class="cls-11" data-name="Path 2055" transform="translate(-220.874 -199.103)"/>
                <path id="Path_2056" d="M287.995 215.158l-5.465-3.123c-.446-.223-.335-.669.112-1l1.785-1a1.8 1.8 0 0 1 1.673-.112l5.465 3.123c.446.223.335.669-.112 1l-1.785 1a1.8 1.8 0 0 1-1.673.112z" class="cls-11" data-name="Path 2056" transform="translate(-220.009 -198.607)"/>
                <path id="Path_2057" d="M295.395 219.458l-5.465-3.123c-.446-.223-.335-.669.112-1l1.785-1a1.8 1.8 0 0 1 1.673-.112l5.465 3.123c.446.223.335.669-.112 1l-1.785 1a1.788 1.788 0 0 1-1.673.112z" class="cls-11" data-name="Path 2057" transform="translate(-219.155 -198.111)"/>
                <path id="Path_2058" d="M302.895 223.758l-5.465-3.123c-.446-.223-.335-.669.112-1l1.785-1a1.8 1.8 0 0 1 1.673-.112l5.465 3.123c.446.223.335.669-.112 1l-1.785 1a1.788 1.788 0 0 1-1.673.112z" class="cls-11" data-name="Path 2058" transform="translate(-218.29 -197.615)"/>
                <path id="Path_2059" d="M344.595 247.758l-5.465-3.123c-.446-.223-.335-.669.112-1l1.785-1a1.8 1.8 0 0 1 1.673-.112l5.465 3.123c.446.223.335.669-.112 1l-1.785 1c-.558.335-1.339.447-1.673.112z" class="cls-11" data-name="Path 2059" transform="translate(-213.48 -194.847)"/>
                <path id="Path_2060" d="M351.995 252.058l-5.465-3.123c-.446-.223-.335-.669.112-1l1.785-1a1.8 1.8 0 0 1 1.673-.112l5.465 3.123c.446.223.335.669-.112 1l-1.785 1a1.528 1.528 0 0 1-1.673.112z" class="cls-11" data-name="Path 2060" transform="translate(-212.626 -194.351)"/>
                <path id="Path_2061" d="M359.495 256.47l-5.465-3.235c-.446-.223-.335-.669.112-1l1.785-1a1.8 1.8 0 0 1 1.673-.112l5.465 3.123c.446.223.335.669-.112 1l-1.785 1a1.855 1.855 0 0 1-1.673.224z" class="cls-11" data-name="Path 2061" transform="translate(-211.761 -193.854)"/>
                <path id="Path_2062" d="M366.895 260.758l-5.465-3.123c-.446-.223-.335-.669.112-1l1.785-1a1.8 1.8 0 0 1 1.673-.112l5.465 3.123c.446.223.335.669-.112 1l-1.785 1a1.788 1.788 0 0 1-1.673.112z" class="cls-11" data-name="Path 2062" transform="translate(-210.907 -193.347)"/>
                <path id="Path_2063" d="M292.995 227.177l-5.465-3.123c-.446-.223-.335-.669.112-1l5.354-3.123a1.8 1.8 0 0 1 1.673-.112l5.465 3.123c.446.223.335.669-.112 1l-5.354 3.123a1.788 1.788 0 0 1-1.673.112z" class="cls-11" data-name="Path 2063" transform="translate(-219.432 -197.465)"/>
                <path id="Path_2064" d="M300.595 231.477l-5.465-3.123c-.446-.223-.335-.669.112-1l5.354-3.123a1.8 1.8 0 0 1 1.673-.112l5.465 3.123c.446.223.335.669-.112 1l-5.354 3.123a1.537 1.537 0 0 1-1.673.112z" class="cls-11" data-name="Path 2064" transform="translate(-218.555 -196.969)"/>
                <path id="Path_2065" d="M308.095 235.877l-5.465-3.123c-.446-.223-.335-.669.112-1l5.354-3.123a1.8 1.8 0 0 1 1.673-.112l5.465 3.123c.446.223.335.669-.112 1l-5.354 3.123a1.788 1.788 0 0 1-1.673.112z" class="cls-11" data-name="Path 2065" transform="translate(-217.69 -196.461)"/>
                <path id="Path_2066" d="M315.595 240.177l-5.465-3.123c-.446-.223-.335-.669.112-1l5.354-3.123a1.8 1.8 0 0 1 1.673-.112l5.465 3.123c.446.223.335.669-.112 1l-5.354 3.123a1.528 1.528 0 0 1-1.673.112z" class="cls-11" data-name="Path 2066" transform="translate(-216.825 -195.965)"/>
                <path id="Path_2067" d="M323.195 244.577l-5.465-3.123c-.446-.223-.335-.669.112-1l5.354-3.123a1.8 1.8 0 0 1 1.673-.112l5.465 3.123c.446.223.335.669-.112 1l-5.354 3.123a1.811 1.811 0 0 1-1.673.112z" class="cls-11" data-name="Path 2067" transform="translate(-215.948 -195.458)"/>
                <path id="Path_2068" d="M330.695 248.877l-5.465-3.123c-.446-.223-.335-.669.112-1l5.354-3.123a1.8 1.8 0 0 1 1.673-.112l5.465 3.123c.446.223.335.669-.112 1l-5.354 3.123a1.528 1.528 0 0 1-1.673.112z" class="cls-11" data-name="Path 2068" transform="translate(-215.083 -194.962)"/>
                <path id="Path_2069" d="M338.195 253.277l-5.465-3.123c-.446-.223-.335-.669.112-1l5.354-3.123a1.8 1.8 0 0 1 1.673-.112l5.465 3.123c.446.223.335.669-.112 1l-5.354 3.123a1.788 1.788 0 0 1-1.673.112z" class="cls-11" data-name="Path 2069" transform="translate(-214.218 -194.454)"/>
                <path id="Path_2070" d="M345.695 257.577l-5.465-3.123c-.446-.223-.335-.669.112-1l5.354-3.123a1.8 1.8 0 0 1 1.673-.112l5.465 3.123c.446.223.335.669-.112 1l-5.354 3.123a1.788 1.788 0 0 1-1.673.112z" class="cls-11" data-name="Path 2070" transform="translate(-213.353 -193.958)"/>
                <path id="Path_2071" d="M353.295 261.977l-5.465-3.123c-.446-.223-.335-.669.112-1l5.354-3.123a1.8 1.8 0 0 1 1.673-.112l5.465 3.123c.446.223.335.669-.112 1l-5.354 3.123a1.788 1.788 0 0 1-1.673.112z" class="cls-11" data-name="Path 2071" transform="translate(-212.476 -193.451)"/>
                <path id="Path_2072" d="M251.09 228.312l-16.061-9.257c-.446-.223-.335-.669.112-1l5.354-3.123a1.8 1.8 0 0 1 1.673-.112l16.061 9.257c.446.223.335.669-.112 1l-5.354 3.123a1.528 1.528 0 0 1-1.673.112z" class="cls-11" data-name="Path 2072" transform="translate(-225.488 -198.042)"/>
                <path id="Path_2073" d="M343.59 281.712l-16.061-9.257c-.446-.223-.335-.669.112-1l5.354-3.123a1.8 1.8 0 0 1 1.673-.112l16.061 9.257c.446.223.335.669-.112 1l-5.354 3.123a1.528 1.528 0 0 1-1.673.112z" class="cls-11" data-name="Path 2073" transform="translate(-214.818 -191.882)"/>
                <path id="Path_2074" d="M312.395 273.435l-5.465-3.123c-.446-.223-.335-.669.112-1l6.469-3.681a1.8 1.8 0 0 1 1.673-.112l5.465 3.123c.446.223.335.669-.112 1l-6.469 3.681a1.788 1.788 0 0 1-1.673.112z" class="cls-11" data-name="Path 2074" transform="translate(-217.194 -192.193)"/>
                <path id="Path_2075" d="M258.029 242.031l-8.7-5.019c-.446-.223-.335-.669.112-1l6.469-3.681a1.8 1.8 0 0 1 1.673-.112l8.7 5.019c.446.223.335.669-.112 1l-6.471 3.682a1.788 1.788 0 0 1-1.671.111z" class="cls-11" data-name="Path 2075" transform="translate(-223.838 -196.035)"/>
                <path id="Path_2076" d="M305.429 269.431l-8.7-5.019c-.446-.223-.335-.669.112-1l6.469-3.681a1.8 1.8 0 0 1 1.673-.112l8.7 5.019c.446.223.335.669-.111 1l-6.472 3.682a1.788 1.788 0 0 1-1.671.111z" class="cls-11" data-name="Path 2076" transform="translate(-218.371 -192.874)"/>
                <path id="Path_2077" d="M268.929 248.331l-8.7-5.019c-.446-.223-.335-.669.112-1l6.469-3.681a1.8 1.8 0 0 1 1.673-.112l8.7 5.019c.446.223.335.669-.112 1l-6.471 3.682a1.8 1.8 0 0 1-1.671.111z" class="cls-11" data-name="Path 2077" transform="translate(-222.581 -195.308)"/>
                <path id="Path_2078" d="M268.454 238.5l37.81 21.861c.446.223.446.669 0 1l-6.581 3.792a2.175 2.175 0 0 1-1.673 0L260.2 243.3z" class="cls-11" data-name="Path 2078" transform="translate(-222.552 -195.292)"/>
                <path id="Path_2079" d="M333.263 280.408l6.023 3.458c.335.223.335.558-.112.781l-2.677 1.562a2.175 2.175 0 0 1-1.45.112l-6.023-3.458c-.335-.223-.335-.558.112-.781l2.677-1.562a2.219 2.219 0 0 1 1.45-.112z" class="cls-11" data-name="Path 2079" transform="translate(-214.64 -190.466)"/>
                <path id="Path_2080" d="M325.663 276.116l6.023 3.458c.335.223.335.558-.112.781l-2.677 1.562a2.175 2.175 0 0 1-1.45.112l-6.023-3.458c-.335-.223-.335-.558.112-.781l2.677-1.561a1.388 1.388 0 0 1 1.45-.113z" class="cls-11" data-name="Path 2080" transform="translate(-215.517 -190.971)"/>
                <path id="Path_2081" d="M318.163 271.716l6.023 3.458c.335.223.335.558-.112.781l-2.677 1.561a2.175 2.175 0 0 1-1.45.112l-6.023-3.458c-.335-.223-.335-.558.112-.781l2.677-1.562a1.383 1.383 0 0 1 1.45-.111z" class="cls-11" data-name="Path 2081" transform="translate(-216.382 -191.478)"/>
                <path id="Path_2082" d="M329.863 273.716l6.023 3.458c.335.223.335.558-.112.781l-2.677 1.561a2.175 2.175 0 0 1-1.45.112l-6.023-3.458c-.335-.223-.335-.558.112-.781l2.677-1.562a1.383 1.383 0 0 1 1.45-.111z" class="cls-11" data-name="Path 2082" transform="translate(-215.032 -191.247)"/>
            </g>
            <path id="Path_2083" d="M426.029 287.826L265.53 195.14a7.031 7.031 0 0 1-2.9-7.919L298.879 69.44c.892-2.9 3.681-4.127 6.246-2.677l160.5 92.686a7.031 7.031 0 0 1 2.9 7.919l-36.25 117.782c-1.004 2.899-3.792 4.126-6.246 2.676z" class="cls-12" data-name="Path 2083" transform="translate(-124.661 -65.131)"/>
            <path id="Path_2084" d="M424.11 283.256l-155.592-89.9a6.659 6.659 0 0 1-2.788-7.584l34.688-112.648c.892-2.788 3.569-3.9 5.911-2.565l155.592 89.9a6.659 6.659 0 0 1 2.788 7.584l-34.687 112.648a3.944 3.944 0 0 1-5.912 2.565z" class="cls-13" data-name="Path 2084" transform="translate(-124.303 -64.687)"/>
            <path id="Path_2085" d="M424.11 283.256l-155.592-89.9a6.659 6.659 0 0 1-2.788-7.584l34.688-112.648c.892-2.788 3.569-3.9 5.911-2.565l155.592 89.9a6.659 6.659 0 0 1 2.788 7.584l-34.687 112.648a3.944 3.944 0 0 1-5.912 2.565z" class="cls-14" data-name="Path 2085" transform="translate(-124.303 -64.687)"/>
            <path id="Path_2086" d="M424.11 283.256l-155.592-89.9a6.659 6.659 0 0 1-2.788-7.584l34.688-112.648c.892-2.788 3.569-3.9 5.911-2.565l155.592 89.9a6.659 6.659 0 0 1 2.788 7.584l-34.687 112.648a3.944 3.944 0 0 1-5.912 2.565z" class="cls-14" data-name="Path 2086" transform="translate(-124.303 -64.687)"/>
            <path id="Path_2087" d="M411.32 245.357l-105.4-60.787a4.547 4.547 0 0 1-1.9-5.242l23.869-77.406a2.73 2.73 0 0 1 4.015-1.785l105.4 60.787a4.547 4.547 0 0 1 1.9 5.242l-23.869 77.406a2.589 2.589 0 0 1-4.015 1.785z" class="cls-15" data-name="Path 2087" transform="translate(-119.878 -61.253)"/>
            <g id="Group_714" data-name="Group 714" transform="translate(169.756 40.302)">
                <path id="Path_2088" d="M398.62 247.069l-105.4-60.9a4.548 4.548 0 0 1-1.9-5.242l23.869-77.406a2.73 2.73 0 0 1 4.015-1.785l105.4 60.787a4.547 4.547 0 0 1 1.9 5.242l-23.868 77.406a2.7 2.7 0 0 1-4.016 1.898z" class="cls-16" data-name="Path 2088" transform="translate(-291.1 -101.37)"/>
            </g>
            <g id="Group_715" class="cls-17" data-name="Group 715" transform="translate(169.756 40.302)">
                <path id="Path_2089" d="M398.62 247.069l-105.4-60.9a4.548 4.548 0 0 1-1.9-5.242l23.869-77.406a2.73 2.73 0 0 1 4.015-1.785l105.4 60.787a4.547 4.547 0 0 1 1.9 5.242l-23.868 77.406a2.7 2.7 0 0 1-4.016 1.898z" class="cls-11" data-name="Path 2089" transform="translate(-291.1 -101.37)"/>
            </g>
            <path id="Path_2090" d="M421.912 162.729l-105.4-60.787a2.691 2.691 0 0 0-3.011.112 4.378 4.378 0 0 1 1.561.335l105.4 60.787a4.548 4.548 0 0 1 1.9 5.242l-23.872 77.405a3.427 3.427 0 0 1-1.115 1.673 2.793 2.793 0 0 0 2.565-2.119l23.869-77.406a4.492 4.492 0 0 0-1.897-5.242z" class="cls-9" data-name="Path 2090" transform="translate(-118.76 -61.049)"/>
            <path id="Path_2091" d="M273.249 293.241a8.75 8.75 0 0 1-3.9-.892l-42.16-24.426a3.13 3.13 0 0 1-1.785-2.565c0-1.227.892-2.342 2.342-3.234l21.749-12.492a9.74 9.74 0 0 1 8.923-.335l42.16 24.315a3.13 3.13 0 0 1 1.785 2.565c0 1.227-.892 2.342-2.342 3.235L278.268 291.9a9.66 9.66 0 0 1-5.019 1.341zm-18.738-43.722a8.162 8.162 0 0 0-4.35 1.115l-21.749 12.492c-1.115.669-1.673 1.45-1.673 2.119a1.854 1.854 0 0 0 1.115 1.561l42.16 24.426c1.9 1.115 5.465 1 7.7-.335l21.749-12.492c1.115-.669 1.673-1.45 1.673-2.119a1.855 1.855 0 0 0-1.115-1.561l-42.16-24.315a6.814 6.814 0 0 0-3.35-.891z" class="cls-14" data-name="Path 2091" transform="translate(-128.922 -44.111)"/>
        </g>
        <g id="Group_718" data-name="Group 718" transform="translate(345.455 184.704)">
            <g id="Group_717" data-name="Group 717" transform="translate(7.027 5.242)">
                <path id="Path_2092" d="M340.046 138.867l-6.469-3.792a1.748 1.748 0 0 1-.669-1.9.91.91 0 0 1 1.45-.558l6.469 3.792a1.748 1.748 0 0 1 .669 1.9.959.959 0 0 1-1.45.558z" class="cls-9" data-name="Path 2092" transform="translate(-308.746 -128.737)"/>
                <path id="Path_2093" d="M354.269 147.152l-9.592-5.577a1.748 1.748 0 0 1-.669-1.9.91.91 0 0 1 1.45-.558l9.592 5.577a1.748 1.748 0 0 1 .669 1.9 1.023 1.023 0 0 1-1.45.558z" class="cls-9" data-name="Path 2093" transform="translate(-307.465 -127.987)"/>
                <path id="Path_2094" d="M328.245 164.867l-6.469-3.792a1.748 1.748 0 0 1-.669-1.9.91.91 0 0 1 1.45-.558l6.469 3.792a1.748 1.748 0 0 1 .669 1.9.939.939 0 0 1-1.45.558z" class="cls-9" data-name="Path 2094" transform="translate(-310.107 -125.738)"/>
                <path id="Path_2095" d="M340.968 172.252l-9.592-5.577a1.748 1.748 0 0 1-.669-1.9.91.91 0 0 1 1.45-.558l9.592 5.577a1.748 1.748 0 0 1 .669 1.9.939.939 0 0 1-1.45.558z" class="cls-9" data-name="Path 2095" transform="translate(-309 -125.092)"/>
                <path id="Path_2096" d="M322.292 134.117l-4.015-2.342a1.748 1.748 0 0 1-.669-1.9.91.91 0 0 1 1.45-.558l4.015 2.342a1.748 1.748 0 0 1 .669 1.9.959.959 0 0 1-1.45.558z" class="cls-9" data-name="Path 2096" transform="translate(-310.511 -129.118)"/>
                <path id="Path_2097" d="M334.157 146.413l-12.38-7.138a1.748 1.748 0 0 1-.669-1.9.91.91 0 0 1 1.45-.558l12.38 7.138a1.748 1.748 0 0 1 .669 1.9.959.959 0 0 1-1.45.558z" class="cls-9" data-name="Path 2097" transform="translate(-310.107 -128.253)"/>
                <path id="Path_2098" d="M322.992 150.917l-4.015-2.342a1.748 1.748 0 0 1-.669-1.9.91.91 0 0 1 1.45-.558l4.015 2.342a1.748 1.748 0 0 1 .669 1.9.959.959 0 0 1-1.45.558z" class="cls-9" data-name="Path 2098" transform="translate(-310.43 -127.18)"/>
                <path id="Path_2099" d="M342.5 184.021l-10.819-6.246a1.748 1.748 0 0 1-.669-1.9.91.91 0 0 1 1.45-.558l10.819 6.246a1.748 1.748 0 0 1 .669 1.9.959.959 0 0 1-1.45.558z" class="cls-9" data-name="Path 2099" transform="translate(-308.965 -123.812)"/>
                <path id="Path_2100" d="M318.742 159.436l-2.565-1.561a1.748 1.748 0 0 1-.669-1.9.91.91 0 0 1 1.45-.558l2.565 1.561a1.748 1.748 0 0 1 .669 1.9 1 1 0 0 1-1.45.558z" class="cls-9" data-name="Path 2100" transform="translate(-310.753 -126.107)"/>
                <path id="Path_2101" d="M316.611 169.071l-3.235-1.9a1.748 1.748 0 0 1-.669-1.9.91.91 0 0 1 1.45-.558l3.234 1.9a1.748 1.748 0 0 1 .669 1.9.959.959 0 0 1-1.449.558z" class="cls-9" data-name="Path 2101" transform="translate(-311.076 -125.034)"/>
                <path id="Path_2102" d="M328.465 175.982l-8.588-4.908a1.748 1.748 0 0 1-.669-1.9.91.91 0 0 1 1.45-.558l8.588 4.908a1.748 1.748 0 0 1 .669 1.9 1.023 1.023 0 0 1-1.45.558z" class="cls-9" data-name="Path 2102" transform="translate(-310.326 -124.584)"/>
                <path id="Path_2103" d="M318.111 175.444l-6.134-3.569a1.748 1.748 0 0 1-.669-1.9.91.91 0 0 1 1.45-.558l6.134 3.569a1.748 1.748 0 0 1 .669 1.9.959.959 0 0 1-1.45.558z" class="cls-9" data-name="Path 2103" transform="translate(-311.237 -124.492)"/>
                <path id="Path_2104" d="M350.08 188.505l-3.9-2.231a1.748 1.748 0 0 1-.669-1.9.91.91 0 0 1 1.45-.558l3.9 2.231a1.748 1.748 0 0 1 .669 1.9.968.968 0 0 1-1.45.558z" class="cls-9" data-name="Path 2104" transform="translate(-307.292 -122.831)"/>
                <path id="Path_2105" d="M337.3 159.121l-10.819-6.246a1.748 1.748 0 0 1-.669-1.9.91.91 0 0 1 1.45-.558l10.819 6.246a1.748 1.748 0 0 1 .669 1.9.91.91 0 0 1-1.45.558z" class="cls-9" data-name="Path 2105" transform="translate(-309.565 -126.684)"/>
            </g>
            <path id="Path_2106" d="M339.237 154.805l-18.961-10.93a1.748 1.748 0 0 1-.669-1.9.91.91 0 0 1 1.45-.558l18.961 10.93a1.748 1.748 0 0 1 .669 1.9.88.88 0 0 1-1.45.558z" class="cls-18" data-name="Path 2106" transform="translate(-303.253 -122.48)"/>
            <path id="Path_2107" d="M328.4 159.521l-10.819-6.246a1.748 1.748 0 0 1-.669-1.9.91.91 0 0 1 1.45-.558l10.819 6.246a1.748 1.748 0 0 1 .669 1.9.959.959 0 0 1-1.45.558z" class="cls-18" data-name="Path 2107" transform="translate(-303.565 -121.396)"/>
            <path id="Path_2108" d="M343.98 163.006l-3.9-2.231a1.748 1.748 0 0 1-.669-1.9.91.91 0 0 1 1.45-.558l3.9 2.231a1.748 1.748 0 0 1 .669 1.9.959.959 0 0 1-1.45.558z" class="cls-18" data-name="Path 2108" transform="translate(-300.969 -120.53)"/>
            <path id="Path_2109" d="M382 163.071l-23.422-13.5a1.748 1.748 0 0 1-.669-1.9.91.91 0 0 1 1.45-.558l23.422 13.5a1.748 1.748 0 0 1 .669 1.9.959.959 0 0 1-1.45.558z" class="cls-18" data-name="Path 2109" transform="translate(-298.835 -121.822)"/>
            <path id="Path_2110" d="M327.826 170.159l-13.05-7.584a1.748 1.748 0 0 1-.669-1.9.91.91 0 0 1 1.45-.558l13.05 7.584a1.749 1.749 0 0 1 .669 1.9 1.023 1.023 0 0 1-1.45.558z" class="cls-19" data-name="Path 2110" transform="translate(-303.888 -120.323)"/>
            <path id="Path_2111" d="M329.268 132.652l-9.592-5.577a1.748 1.748 0 0 1-.669-1.9.91.91 0 0 1 1.45-.558l9.592 5.577a1.748 1.748 0 0 1 .669 1.9.959.959 0 0 1-1.45.558z" class="cls-19" data-name="Path 2111" transform="translate(-303.322 -124.418)"/>
            <path id="Path_2112" d="M316.83 180.144l-11.154-6.469a1.748 1.748 0 0 1-.669-1.9.91.91 0 0 1 1.45-.558l11.153 6.469a1.748 1.748 0 0 1 .669 1.9.959.959 0 0 1-1.449.558z" class="cls-18" data-name="Path 2112" transform="translate(-304.937 -119.042)"/>
        </g>
        <g id="Group_719" data-name="Group 719" transform="translate(425.801 209.213)">
            <path id="Path_2113" d="M382.357 151.082l-4.8-2.788a1.279 1.279 0 0 1-.558-1.338.784.784 0 0 1 1.115-.446l4.8 2.788a1.28 1.28 0 0 1 .558 1.338c-.223.558-.672.781-1.115.446z" class="cls-9" data-name="Path 2113" transform="translate(-376.975 -146.422)"/>
            <path id="Path_2114" d="M390.557 155.782l-4.8-2.788a1.279 1.279 0 0 1-.558-1.338.784.784 0 0 1 1.115-.446l4.8 2.788a1.279 1.279 0 0 1 .558 1.338c-.223.558-.672.781-1.115.446z" class="cls-9" data-name="Path 2114" transform="translate(-376.029 -145.879)"/>
            <path id="Path_2115" d="M398.657 160.582l-4.8-2.788a1.279 1.279 0 0 1-.558-1.338.784.784 0 0 1 1.115-.446l4.8 2.788a1.279 1.279 0 0 1 .558 1.338.815.815 0 0 1-1.115.446z" class="cls-9" data-name="Path 2115" transform="translate(-375.094 -145.326)"/>
            <path id="Path_2116" d="M402.172 162.605l-.112-.112a1.279 1.279 0 0 1-.558-1.338.784.784 0 0 1 1.115-.446l.112.112a1.279 1.279 0 0 1 .558 1.338.815.815 0 0 1-1.115.446z" class="cls-19" data-name="Path 2116" transform="translate(-374.148 -144.784)"/>
        </g>
        <path id="Path_2117" d="M186.23 217.376a17.264 17.264 0 0 1-8.7-2.342l-31.9-18.4a4.455 4.455 0 0 1-2.231-3.792 4.229 4.229 0 0 1 2.231-3.792l31.9-18.4a17.328 17.328 0 0 1 17.4 0l31.9 18.4a4.455 4.455 0 0 1 2.231 3.792 4.229 4.229 0 0 1-2.231 3.792l-31.9 18.4a17.264 17.264 0 0 1-8.7 2.342zm-7.7-4.127a15.206 15.206 0 0 0 15.392 0l31.9-18.4a2.238 2.238 0 0 0 1.115-2.008 2.492 2.492 0 0 0-1.115-2.008l-31.9-18.4a15.206 15.206 0 0 0-15.392 0l-31.9 18.4a2.238 2.238 0 0 0-1.115 2.008 2.343 2.343 0 0 0 1.115 2.008z" class="cls-20" data-name="Path 2117" transform="translate(21.883 65.221)"/>
    </g>
</svg>
