<svg xmlns="http://www.w3.org/2000/svg" xmlns:xlink="http://www.w3.org/1999/xlink" width="65.981" height="183.15" viewBox="0 0 65.981 183.15">
    <defs>
        <style>
            .cls-1{fill:#020230;opacity:.6}.cls-2{fill:url(#radial-gradient)}.cls-3{fill:#06033e;opacity:.4}.cls-4{fill:url(#linear-gradient)}.cls-5{fill:url(#linear-gradient-2)}.cls-6{fill:url(#linear-gradient-3)}.cls-7{fill:url(#linear-gradient-4)}.cls-8{fill:url(#radial-gradient-2)}.cls-13,.cls-9{fill:#fff}.cls-10{fill:#0c0a78}.cls-11{fill:url(#linear-gradient-5)}.cls-12{fill:#e8975b}.cls-13{opacity:.5}
        </style>
        <radialGradient id="radial-gradient" cx="808.789" cy="596.062" r="139.833" gradientTransform="translate(-208.317 -155.026) scale(1.319)" gradientUnits="userSpaceOnUse">
            <stop offset="0" stop-color="#e39a65"/>
            <stop offset=".153" stop-color="#a92ffb"/>
            <stop offset=".409" stop-color="#3919bb"/>
            <stop offset=".931" stop-color="#3919bb"/>
        </radialGradient>
        <linearGradient id="linear-gradient" x1="-.002" x2="1" y1=".497" y2=".497" gradientUnits="objectBoundingBox">
            <stop offset="0" stop-color="#e39a65"/>
            <stop offset=".252" stop-color="#a92ffb"/>
            <stop offset=".556" stop-color="#3919bb"/>
        </linearGradient>
        <linearGradient id="linear-gradient-2" x2="1" y1=".499" y2=".499" gradientUnits="objectBoundingBox">
            <stop offset="0" stop-color="#4f1fec"/>
            <stop offset="1" stop-color="#a92ffb"/>
        </linearGradient>
        <linearGradient id="linear-gradient-3" x1="-.001" x2=".999" y1=".499" y2=".499" xlink:href="#linear-gradient-2"/>
        <linearGradient id="linear-gradient-4" x2="1.258" y1=".503" y2=".503" gradientUnits="objectBoundingBox">
            <stop offset="0" stop-color="#131060"/>
            <stop offset=".186" stop-color="#141062"/>
            <stop offset=".282" stop-color="#19106a"/>
            <stop offset=".358" stop-color="#221078"/>
            <stop offset=".424" stop-color="#2e0f8b"/>
            <stop offset=".482" stop-color="#3e0fa3"/>
            <stop offset=".536" stop-color="#510ec2"/>
            <stop offset=".585" stop-color="#680de5"/>
            <stop offset=".607" stop-color="#740df8"/>
            <stop offset=".618" stop-color="#7a14f0"/>
            <stop offset=".683" stop-color="#9b3cc3"/>
            <stop offset=".748" stop-color="#b75d9d"/>
            <stop offset=".812" stop-color="#cc7680"/>
            <stop offset=".876" stop-color="#dc886c"/>
            <stop offset=".939" stop-color="#e5935f"/>
            <stop offset="1" stop-color="#e8975b"/>
        </linearGradient>
        <radialGradient id="radial-gradient-2" cx="-714.59" cy="-402.355" r="209.643" gradientTransform="matrix(.575 0 0 .575 -367.832 -207.872)" gradientUnits="userSpaceOnUse">
            <stop offset="0" stop-color="#e39a65"/>
            <stop offset=".252" stop-color="#a92ffb"/>
            <stop offset=".736" stop-color="#3919bb"/>
        </radialGradient>
        <linearGradient id="linear-gradient-5" x1="-.081" x2="1.229" y1=".427" y2=".427" xlink:href="#linear-gradient-4"/>
    </defs>
    <g id="Group_937" data-name="Group 937" transform="translate(-678.302 -280)">
        <g id="Group_936" data-name="Group 936" transform="translate(678.302 335.203)">
            <ellipse id="Ellipse_77" cx="21.861" cy="12.604" class="cls-1" data-name="Ellipse 77" rx="21.861" ry="12.604" transform="translate(9.839 102.74)"/>
            <path id="Path_2118" d="M217.248 109.9H154.9l5.8 67.59c0 3.792 2.454 7.473 7.473 10.373 9.927 5.688 25.988 5.688 35.914 0 4.908-2.9 7.473-6.581 7.473-10.373z" class="cls-2" data-name="Path 2118" transform="translate(-153.092 -84.677)"/>
            <path id="Path_2119" d="M217.248 109.9H154.9l1 11.154a26.987 26.987 0 0 0 5.8 5.242c11.934 7.919 31.564 9.481 45.06 3.792l-2.119 49.41a9.7 9.7 0 0 1-2.231 5.911c-2.008 2.342-5.911 5.131-13.384 6.8a34.8 34.8 0 0 0 15.057-4.238c4.908-2.9 7.473-6.581 7.473-10.373l4.684-54.206z" class="cls-3" data-name="Path 2119" transform="translate(-153.092 -84.677)"/>
            <ellipse id="Ellipse_78" cx="31.23" cy="17.957" class="cls-3" data-name="Ellipse 78" rx="31.23" ry="17.957" transform="translate(1.697 7.266)"/>
            <ellipse id="Ellipse_79" cx="26.88" cy="15.503" class="cls-3" data-name="Ellipse 79" rx="26.88" ry="15.503" transform="translate(6.046 3.362)"/>
            <path id="Path_2120" d="M219.22 111.6v-.112l-.558-6.023v.112c-.223-4.573-3.458-9.146-9.48-12.6-12.715-7.361-33.237-7.361-45.841 0-6.246 3.569-9.369 8.254-9.481 12.938l-.558 5.354v.558c-.335 5.131 2.9 10.373 9.7 14.277 12.938 7.473 33.907 7.473 46.733 0 6.696-4.134 9.931-9.376 9.485-14.504z" class="cls-4" data-name="Path 2120" transform="translate(-153.279 -87.267)"/>
            <ellipse id="Ellipse_80" cx="26.88" cy="15.503" class="cls-5" data-name="Ellipse 80" rx="26.88" ry="15.503" transform="translate(6.046 3.362)"/>
            <ellipse id="Ellipse_81" cx="26.88" cy="15.503" class="cls-6" data-name="Ellipse 81" rx="26.88" ry="15.503" transform="translate(4.82 3.362)"/>
            <path id="Path_2121" d="M169.748 97.109c10.484-6.023 27.549-6.023 38.034 0 .112.112.223.112.335.223a22.554 22.554 0 0 0-3.569-2.565c-10.484-6.023-27.549-6.023-38.034 0-10.373 6.023-10.484 15.615-.335 21.749-6.692-6.022-5.579-14.164 3.569-19.407z" class="cls-3" data-name="Path 2121" transform="translate(-152.659 -86.944)"/>
            <path id="Path_2122" d="M166.618 97.444c10.484-6.023 27.549-6.023 38.033 0 4.684 2.677 7.25 6.134 7.807 9.592.669-4.461-1.9-8.923-7.807-12.269-10.484-6.023-27.549-6.023-38.034 0-5.8 3.346-8.477 7.919-7.807 12.269.558-3.458 3.123-6.804 7.808-9.592z" class="cls-7" data-name="Path 2122" transform="translate(-152.652 -86.944)"/>
            <path id="Path_2123" d="M209.262 92.99c-12.6-7.473-33.238-7.584-46.064-.446-12.827 7.25-12.827 19.184-.223 26.545 12.6 7.473 33.238 7.584 46.064.446s12.938-19.072.223-26.545zm-4.127 24.092a34.568 34.568 0 0 1-12.269 4.015l-.446-1.562a1.54 1.54 0 0 0-1.45-1.115h-9.7a1.54 1.54 0 0 0-1.45 1.115l-.446 1.562a36.117 36.117 0 0 1-12.269-4.015c-10.484-6.023-10.484-15.838 0-21.972 10.484-6.023 27.549-6.023 38.034 0 10.48 6.134 10.48 15.949-.004 21.972z" class="cls-8" data-name="Path 2123" transform="translate(-153.248 -87.286)"/>
            <g id="Group_720" data-name="Group 720" transform="translate(.347 2.191)">
                <path id="Path_2124" d="M204.544 93.767c-10.484-6.023-27.549-6.023-38.034 0-5.465 3.123-8.142 7.361-7.807 11.488.223-3.792 2.9-7.473 7.807-10.373 10.484-6.023 27.549-6.023 38.034 0 5.019 2.9 7.584 6.581 7.807 10.373.335-4.126-2.23-8.255-7.807-11.488z" class="cls-9" data-name="Path 2124" transform="translate(-153.003 -89.25)"/>
                <path id="Path_2125" d="M209.034 116.561c-12.827 7.25-33.349 7.027-46.064-.446-6.023-3.569-9.146-8.142-9.369-12.715-.223 4.908 2.9 10.038 9.369 13.83 12.6 7.473 33.238 7.584 46.064.446 6.692-3.792 9.927-8.811 9.592-13.942-.111 4.797-3.346 9.366-9.592 12.827z" class="cls-9" data-name="Path 2125" transform="translate(-153.59 -87.618)"/>
            </g>
            <path id="Path_2126" d="M186.081 118.573h-5.8a.762.762 0 0 1-.781-.781v-.112a.762.762 0 0 1 .781-.781h5.8a.762.762 0 0 1 .781.781v.112a.939.939 0 0 1-.781.781z" class="cls-10" data-name="Path 2126" transform="translate(-150.254 -83.87)"/>
            <path id="Path_2127" d="M186.081 117h-5.8a.762.762 0 0 0-.781.781v.335a.707.707 0 0 1 .669-.558h5.8a.707.707 0 0 1 .669.558v-.335a.608.608 0 0 0-.557-.781z" class="cls-11" data-name="Path 2127" transform="translate(-150.254 -83.858)"/>
            <g id="Group_721" data-name="Group 721" transform="translate(21.731 72.939)">
                <path id="Path_2128" d="M184.62 164.772a5.018 5.018 0 0 1-9.7-2.565c.669-2.677 3.235-3.458 5.911-2.677 2.669.67 4.458 2.57 3.789 5.242z" class="cls-12" data-name="Path 2128" transform="translate(-172.532 -151.924)"/>
                <path id="Path_2129" d="M187.5 159.93a2.208 2.208 0 0 1-3.123-3.123c1-1 2.9-1.45 3.792-.558.889.781.331 2.678-.669 3.681z" class="cls-12" data-name="Path 2129" transform="translate(-171.505 -152.325)"/>
                <path id="Path_2130" d="M182.854 156.16a2.1 2.1 0 0 1-2.565 1.785 2.124 2.124 0 0 1-1.785-2.565c.223-1.338 1.561-2.9 2.677-2.677 1.227.222 2.007 2.007 1.673 3.457z" class="cls-12" data-name="Path 2130" transform="translate(-172.105 -152.681)"/>
                <path id="Path_2131" d="M177.154 155.418a2.227 2.227 0 0 1-4.127 1.673c-.558-1.338-.223-3.235.892-3.681s2.681.67 3.235 2.008z" class="cls-12" data-name="Path 2131" transform="translate(-172.762 -152.608)"/>
            </g>
        </g>
        <path id="Path_2135" d="M185.525 124.748s17.4-5.8 10.373-25.876-20.746-26.211-15.28-42.272c0 0-8.7 12.938-.558 30.561 8.142 17.511 9.927 15.5 9.815 23.98a15.282 15.282 0 0 1-8.142 13.607z" class="cls-13" data-name="Path 2135" transform="translate(527.711 244.703)"/>
        <path id="Path_2136" d="M186.011 61.592s-1.785-12.046 9.481-24.092c0 0-9.927 22.2-6.692 33.126 0 .112-2.678-6.915-2.789-9.034z" class="cls-13" data-name="Path 2136" transform="translate(528.787 242.5)"/>
    </g>
</svg>
