<svg xmlns="http://www.w3.org/2000/svg" xmlns:xlink="http://www.w3.org/1999/xlink" width="120" height="79.104" viewBox="0 0 120 79.104">
    <defs>
        <style>
            .cls-1{fill:url(#linear-gradient)}.cls-2{fill:url(#linear-gradient-2)}.cls-3{fill:url(#linear-gradient-3)}.cls-4{fill:url(#linear-gradient-4)}.cls-5{fill:url(#linear-gradient-5)}.cls-6{fill:url(#linear-gradient-6)}.cls-7{fill:url(#linear-gradient-7)}.cls-8{fill:url(#linear-gradient-8)}.cls-9{fill:url(#linear-gradient-9)}.cls-10{fill:url(#linear-gradient-10)}.cls-11{fill:url(#linear-gradient-11)}.cls-12{fill:url(#linear-gradient-12)}.cls-13{fill:url(#linear-gradient-13)}.cls-14{fill:url(#linear-gradient-14)}.cls-15{fill:url(#linear-gradient-15)}.cls-16{fill:url(#linear-gradient-16)}.cls-17{fill:url(#linear-gradient-17)}.cls-18{fill:url(#linear-gradient-18)}.cls-19{fill:url(#linear-gradient-19)}.cls-20{fill:url(#linear-gradient-20)}.cls-21{fill:url(#linear-gradient-21)}.cls-22{fill:url(#linear-gradient-22)}.cls-23{fill:url(#linear-gradient-23)}.cls-24{fill:url(#linear-gradient-24)}.cls-25{fill:url(#linear-gradient-25)}.cls-26{fill:url(#linear-gradient-26)}.cls-27{fill:url(#linear-gradient-27)}.cls-28{fill:url(#linear-gradient-28)}.cls-29{fill:url(#linear-gradient-29)}.cls-30{fill:url(#linear-gradient-30)}.cls-31{fill:url(#linear-gradient-31)}.cls-32{fill:url(#linear-gradient-32)}.cls-33{fill:url(#linear-gradient-33)}.cls-34{fill:url(#linear-gradient-34)}.cls-35{fill:url(#linear-gradient-35)}.cls-36{fill:url(#linear-gradient-36)}.cls-37{fill:url(#linear-gradient-37)}.cls-38{fill:url(#linear-gradient-38)}.cls-39{fill:url(#linear-gradient-39)}.cls-40{fill:url(#linear-gradient-40)}.cls-41{fill:url(#linear-gradient-41)}.cls-42{fill:url(#linear-gradient-42)}.cls-43{fill:url(#linear-gradient-43)}.cls-44{fill:url(#linear-gradient-44)}.cls-45{fill:url(#linear-gradient-45)}.cls-46{fill:url(#linear-gradient-46)}.cls-47,.cls-51{fill:#f8dd82}.cls-47{font-size:24px;font-family:Cairo-SemiBold,Cairo;font-weight:600}.cls-48{fill:url(#linear-gradient-47)}.cls-49{fill:url(#linear-gradient-48)}.cls-50{fill:url(#linear-gradient-49)}.cls-51{font-size:18px;font-family:Cairo-Light,Cairo;font-weight:300;letter-spacing:.1em}
        </style>
        <linearGradient id="linear-gradient" x1=".49" x2=".49" y1="-8.702" y2="6.512" gradientUnits="objectBoundingBox">
            <stop offset="0" stop-color="#e3a850"/>
            <stop offset=".067" stop-color="#b8803a"/>
            <stop offset=".124" stop-color="#985f26"/>
            <stop offset=".18" stop-color="#f1c36c"/>
            <stop offset=".213" stop-color="#f3c971"/>
            <stop offset=".26" stop-color="#f8db80"/>
            <stop offset=".298" stop-color="#fdef90"/>
            <stop offset=".302" stop-color="#f9e385"/>
            <stop offset=".311" stop-color="#f1cd72"/>
            <stop offset=".321" stop-color="#eabc62"/>
            <stop offset=".335" stop-color="#e6b158"/>
            <stop offset=".353" stop-color="#e4aa52"/>
            <stop offset=".405" stop-color="#e3a850"/>
            <stop offset=".455" stop-color="#b8803a"/>
            <stop offset=".59" stop-color="#f1c36c"/>
            <stop offset=".663" stop-color="#fdef90"/>
            <stop offset=".667" stop-color="#f6e688"/>
            <stop offset=".684" stop-color="#e1c76f"/>
            <stop offset=".703" stop-color="#cfae59"/>
            <stop offset=".724" stop-color="#c29a49"/>
            <stop offset=".748" stop-color="#b88c3e"/>
            <stop offset=".777" stop-color="#b38437"/>
            <stop offset=".831" stop-color="#b18235"/>
            <stop offset=".916" stop-color="#6a3e18"/>
            <stop offset=".994" stop-color="#e3a850"/>
        </linearGradient>
        <linearGradient id="linear-gradient-2" x1=".498" x2=".498" y1="-9.629" y2="6.695" xlink:href="#linear-gradient"/>
        <linearGradient id="linear-gradient-3" x1=".5" x2=".5" y1="-20.21" y2="10.664" xlink:href="#linear-gradient"/>
        <linearGradient id="linear-gradient-4" x1=".511" x2=".511" y1="-8.022" y2="6.623" xlink:href="#linear-gradient"/>
        <linearGradient id="linear-gradient-5" x1=".504" x2=".504" y1="-19.948" y2="11.468" xlink:href="#linear-gradient"/>
        <linearGradient id="linear-gradient-6" x1=".5" x2=".5" y1="-7.664" y2="7.12" xlink:href="#linear-gradient"/>
        <linearGradient id="linear-gradient-7" x1=".512" x2=".512" y1="-18.288" y2="11.995" xlink:href="#linear-gradient"/>
        <linearGradient id="linear-gradient-8" x1=".495" x2=".495" y1="-7.623" y2="8.047" xlink:href="#linear-gradient"/>
        <linearGradient id="linear-gradient-9" x1=".497" x2=".497" y1="-14.819" y2="11.487" xlink:href="#linear-gradient"/>
        <linearGradient id="linear-gradient-10" x1=".498" x2=".498" y1="-7.837" y2="9.574" xlink:href="#linear-gradient"/>
        <linearGradient id="linear-gradient-11" x1=".494" x2=".494" y1="-11.674" y2="11.026" xlink:href="#linear-gradient"/>
        <linearGradient id="linear-gradient-12" x1=".505" x2=".505" y1="-8.501" y2="11.941" xlink:href="#linear-gradient"/>
        <linearGradient id="linear-gradient-13" x1=".508" x2=".508" y1="-8.443" y2="9.975" xlink:href="#linear-gradient"/>
        <linearGradient id="linear-gradient-14" x1=".508" x2=".508" y1="-6.201" y2="9.313" xlink:href="#linear-gradient"/>
        <linearGradient id="linear-gradient-15" x1=".491" x2=".491" y1="-9.343" y2="15.389" xlink:href="#linear-gradient"/>
        <linearGradient id="linear-gradient-16" x1=".5" x2=".5" y1="-4.731" y2="9.015" xlink:href="#linear-gradient"/>
        <linearGradient id="linear-gradient-17" x1=".506" x2=".506" y1="-10.07" y2="19.483" xlink:href="#linear-gradient"/>
        <linearGradient id="linear-gradient-18" x1=".513" x2=".513" y1="-3.757" y2="9.088" xlink:href="#linear-gradient"/>
        <linearGradient id="linear-gradient-19" x1=".491" x2=".491" y1="-9.899" y2="22.412" xlink:href="#linear-gradient"/>
        <linearGradient id="linear-gradient-20" x1=".485" x2=".485" y1="-3.099" y2="9.438" xlink:href="#linear-gradient"/>
        <linearGradient id="linear-gradient-21" x1=".502" x2=".502" y1="-9.511" y2="24.924" xlink:href="#linear-gradient"/>
        <linearGradient id="linear-gradient-22" x1=".517" x2=".517" y1="-2.648" y2="9.99" xlink:href="#linear-gradient"/>
        <linearGradient id="linear-gradient-23" x1=".497" x2=".497" y1="-4.129" y2="14.684" xlink:href="#linear-gradient"/>
        <linearGradient id="linear-gradient-24" x1=".523" x2=".523" y1="-8.702" y2="6.512" xlink:href="#linear-gradient"/>
        <linearGradient id="linear-gradient-25" x1=".514" x2=".514" y1="-9.629" y2="6.695" xlink:href="#linear-gradient"/>
        <linearGradient id="linear-gradient-26" x1=".497" x2=".497" y1="-20.21" y2="10.664" xlink:href="#linear-gradient"/>
        <linearGradient id="linear-gradient-27" x1=".504" x2=".504" y1="-8.022" y2="6.623" xlink:href="#linear-gradient"/>
        <linearGradient id="linear-gradient-28" x1=".494" x2=".494" y1="-19.948" y2="11.468" xlink:href="#linear-gradient"/>
        <linearGradient id="linear-gradient-29" x1=".494" x2=".494" y1="-7.664" y2="7.12" xlink:href="#linear-gradient"/>
        <linearGradient id="linear-gradient-30" x1=".497" x2=".497" y1="-18.288" y2="11.995" xlink:href="#linear-gradient"/>
        <linearGradient id="linear-gradient-31" x1=".499" x2=".499" y1="-7.623" y2="8.047" xlink:href="#linear-gradient"/>
        <linearGradient id="linear-gradient-32" x1=".5" x2=".5" y1="-14.819" y2="11.487" xlink:href="#linear-gradient"/>
        <linearGradient id="linear-gradient-33" x1=".498" x2=".498" y1="-7.837" y2="9.574" xlink:href="#linear-gradient"/>
        <linearGradient id="linear-gradient-34" x1=".512" x2=".512" y1="-11.674" y2="11.026" xlink:href="#linear-gradient"/>
        <linearGradient id="linear-gradient-35" x1=".504" x2=".504" y1="-8.501" y2="11.941" xlink:href="#linear-gradient"/>
        <linearGradient id="linear-gradient-36" x1=".499" x2=".499" y1="-8.443" y2="9.975" xlink:href="#linear-gradient"/>
        <linearGradient id="linear-gradient-37" x1=".488" x2=".488" y1="-6.201" y2="9.313" xlink:href="#linear-gradient"/>
        <linearGradient id="linear-gradient-38" x1=".506" x2=".506" y1="-9.343" y2="15.389" xlink:href="#linear-gradient"/>
        <linearGradient id="linear-gradient-39" x1=".513" x2=".513" y1="-4.731" y2="9.015" xlink:href="#linear-gradient"/>
        <linearGradient id="linear-gradient-40" x1=".501" x2=".501" y1="-10.07" y2="19.483" xlink:href="#linear-gradient"/>
        <linearGradient id="linear-gradient-41" x1=".48" x2=".48" y1="-3.757" y2="9.088" xlink:href="#linear-gradient"/>
        <linearGradient id="linear-gradient-42" x1=".507" x2=".507" y1="-9.899" y2="22.412" xlink:href="#linear-gradient"/>
        <linearGradient id="linear-gradient-43" x1=".509" x2=".509" y1="-3.099" y2="9.438" xlink:href="#linear-gradient"/>
        <linearGradient id="linear-gradient-44" x1=".495" x2=".495" y1="-9.511" y2="24.924" xlink:href="#linear-gradient"/>
        <linearGradient id="linear-gradient-45" x1=".495" x2=".495" y1="-2.648" y2="9.99" xlink:href="#linear-gradient"/>
        <linearGradient id="linear-gradient-46" x1=".5" x2=".5" y1="-4.129" y2="14.684" xlink:href="#linear-gradient"/>
        <linearGradient id="linear-gradient-47" x1="-1.939" x2="2.817" y1=".497" y2=".497" xlink:href="#linear-gradient"/>
        <linearGradient id="linear-gradient-48" x1="-1.766" x2="6.705" y1=".501" y2=".501" xlink:href="#linear-gradient"/>
        <linearGradient id="linear-gradient-49" x1="-5.922" x2="2.549" y1=".501" y2=".501" xlink:href="#linear-gradient"/>
    </defs>
    <g id="Group_662" data-name="Group 662" transform="translate(-593.5 -12.5)">
        <g id="Group_626" data-name="Group 626" transform="translate(674.866 12.5)">
            <path id="Path_1573" d="M116.28 283.52l-.74.74a5.615 5.615 0 0 0-1.374 1.374 5.946 5.946 0 0 0-1.057 2.326 5.443 5.443 0 0 0-.106 1.9 6.394 6.394 0 0 0 .423 2.326 6.114 6.114 0 0 0 1.48-.529 5.789 5.789 0 0 0 3.595-4.546 11.1 11.1 0 0 0-1.9-5.815 2.535 2.535 0 0 1 .211 1.48c-.212.216-.321.533-.532.744z" class="cls-1" data-name="Path 1573" transform="translate(-106.086 -221.247)"/>
            <path id="Path_1574" d="M110.943 292.558a6.2 6.2 0 0 0 1.48-2.326c.529-1.692.106-3.912-.634-6.132a4.031 4.031 0 0 1-.106 1.586 2.592 2.592 0 0 1-1.374 1.163 6.469 6.469 0 0 0-3.172 3.172 8.9 8.9 0 0 0-.634 4.229 4.11 4.11 0 0 0 1.586-.211 8.017 8.017 0 0 0 2.854-1.481z" class="cls-2" data-name="Path 1574" transform="translate(-106.459 -221.087)"/>
            <path id="Path_1575" d="M114.529 295.043a6.352 6.352 0 0 0-2.855-.74 8.135 8.135 0 0 0-3.489.317 8.815 8.815 0 0 0-1.586.423 7.2 7.2 0 0 0 1.057 2.22 4.513 4.513 0 0 0 1.48 1.374 6.506 6.506 0 0 0 3.066.952 7.161 7.161 0 0 0 2.749-.423 6.353 6.353 0 0 1 2.643-.317 2.778 2.778 0 0 1 1.586.74 12.679 12.679 0 0 0-4.651-4.546z" class="cls-3" data-name="Path 1575" transform="translate(-106.45 -220.506)"/>
            <path id="Path_1576" d="M121.037 288.073a6.907 6.907 0 0 0 1.269-1.163 5.993 5.993 0 0 0 .846-1.374 4.167 4.167 0 0 0 .317-2.749 10.451 10.451 0 0 0-3.169-5.287 2.293 2.293 0 0 1-.211 3.066 5.972 5.972 0 0 0-1.586 4.123 8.775 8.775 0 0 0 1.163 4.123c.526-.212.949-.528 1.371-.739z" class="cls-4" data-name="Path 1576" transform="translate(-105.769 -221.465)"/>
            <path id="Path_1577" d="M115.28 292.259c-.423.212-.952.529-1.48.74a7.621 7.621 0 0 0 1.48 2.009 4.964 4.964 0 0 0 1.692 1.057 6.966 6.966 0 0 0 3.278.317 11.617 11.617 0 0 0 2.537-.952 5.161 5.161 0 0 1 1.374-.634 4.65 4.65 0 0 1 1.057-.211 3.041 3.041 0 0 1 1.692.317 13.117 13.117 0 0 0-5.392-3.383c-1.903-.634-3.806-.419-6.238.74z" class="cls-5" data-name="Path 1577" transform="translate(-106.038 -220.682)"/>
            <path id="Path_1578" d="M126.376 283.05a4.435 4.435 0 0 0 .952-1.48 8.288 8.288 0 0 0 .529-1.48 4.834 4.834 0 0 0-.211-2.749 10.237 10.237 0 0 0-4.123-4.441 2.331 2.331 0 0 1 .423 3.066 2.651 2.651 0 0 1-.423.74l-.317.952a11.015 11.015 0 0 0 0 2.643 8.354 8.354 0 0 0 2.009 3.806 5.539 5.539 0 0 0 1.161-1.057z" class="cls-6" data-name="Path 1578" transform="translate(-105.504 -221.728)"/>
            <path id="Path_1579" d="M124.635 286.723a9.674 9.674 0 0 0-1.48.74l-1.586.952a11.194 11.194 0 0 0-1.269 1.057 5.6 5.6 0 0 0 3.7 2.22c2.326.423 4.335-.952 5.5-1.9 1.692-1.586 2.749-1.692 3.912-1.374a11.875 11.875 0 0 0-6.026-2.115 9.674 9.674 0 0 0-2.751.42z" class="cls-7" data-name="Path 1579" transform="translate(-105.666 -220.961)"/>
            <path id="Path_1580" d="M129.723 278.473a8.823 8.823 0 0 0 .846-1.269 7.911 7.911 0 0 0 .846-3.172 4.626 4.626 0 0 0-.846-2.643 9.036 9.036 0 0 0-2.009-2.009 19.318 19.318 0 0 0-2.96-1.48 3.361 3.361 0 0 1 1.057 1.057 2.584 2.584 0 0 1 0 1.8c-.106.211-.106.529-.211.846 0 .317-.106.634-.106 1.057a4.983 4.983 0 0 0 .634 2.537 8.982 8.982 0 0 0 2.749 3.276z" class="cls-8" data-name="Path 1580" transform="translate(-105.362 -222.015)"/>
            <path id="Path_1581" d="M132.444 280.109a9.817 9.817 0 0 0-2.749 1.057l-1.269.952a16.254 16.254 0 0 0-1.269 1.374 13.432 13.432 0 0 0-1.057 1.269 6.385 6.385 0 0 0 4.123 1.48 4.905 4.905 0 0 0 2.96-1.163 11.241 11.241 0 0 0 1.163-.952 6.844 6.844 0 0 0 .846-.951c1.269-1.9 2.432-2.22 3.595-2.22a11.535 11.535 0 0 0-6.343-.846z" class="cls-9" data-name="Path 1581" transform="translate(-105.334 -221.325)"/>
            <path id="Path_1582" d="M133.161 271.081c.106-.211.106-.529.211-.74a10.68 10.68 0 0 0 .317-1.8 8 8 0 0 0-.106-1.586 5.058 5.058 0 0 0-1.374-2.432 4.143 4.143 0 0 0-1.057-.846c-.423-.211-.846-.423-1.374-.634a14.857 14.857 0 0 0-3.278-.846 2.191 2.191 0 0 1 1.692 2.643 4.2 4.2 0 0 0 .212 1.9 4.593 4.593 0 0 0 1.057 2.326 8.215 8.215 0 0 0 3.383 2.643 1.721 1.721 0 0 0 .317-.628z" class="cls-10" data-name="Path 1582" transform="translate(-105.311 -222.341)"/>
            <path id="Path_1583" d="M138.741 272.3a12.2 12.2 0 0 0-2.96.634 7.441 7.441 0 0 0-2.432 1.586 8.564 8.564 0 0 0-2.009 2.855c-.211.423-.529.952-.74 1.48a6.8 6.8 0 0 0 4.441.529 5.172 5.172 0 0 0 2.643-1.8c.317-.423.634-.74.952-1.163a5.663 5.663 0 0 0 .529-1.163 5.387 5.387 0 0 1 1.48-2.22 3.6 3.6 0 0 1 1.586-.74c-1.27.002-2.431-.098-3.49.002z" class="cls-11" data-name="Path 1583" transform="translate(-105.076 -221.765)"/>
            <path id="Path_1584" d="M134.658 263.247a6.311 6.311 0 0 0-.529-3.278 4.766 4.766 0 0 0-1.8-2.009 7.048 7.048 0 0 0-2.749-.952 11.836 11.836 0 0 0-3.383-.106 2.459 2.459 0 0 1 2.22 2.22 5.206 5.206 0 0 0 .529 1.9 6.464 6.464 0 0 0 1.586 2.115 7.942 7.942 0 0 0 3.912 1.8 5.589 5.589 0 0 0 .214-1.69z" class="cls-12" data-name="Path 1584" transform="translate(-105.328 -222.648)"/>
            <path id="Path_1585" d="M140.261 264.029a8.292 8.292 0 0 0-1.48.529 8.737 8.737 0 0 0-1.374.74 6.407 6.407 0 0 0-2.009 2.114c-.211.423-.529.952-.74 1.48a17.108 17.108 0 0 0-.634 1.8c-.106.211-.106.529-.211.74s-.106.529-.211.846a5.773 5.773 0 0 0 4.335-.423 6.988 6.988 0 0 0 2.326-2.326 9.438 9.438 0 0 0 .952-2.537c.529-2.326 1.269-2.96 2.326-3.489a11.194 11.194 0 0 0-3.28.526z" class="cls-13" data-name="Path 1585" transform="translate(-104.904 -222.267)"/>
            <path id="Path_1586" d="M143.129 254.3a14.371 14.371 0 0 0-3.172 1.374 11.171 11.171 0 0 0-2.432 1.8 8.642 8.642 0 0 0-1.586 2.537 14.576 14.576 0 0 0-.74 3.383v1.586a5.85 5.85 0 0 0 4.123-1.374 6.914 6.914 0 0 0 1.8-2.749 9.174 9.174 0 0 0 .423-2.749 4.318 4.318 0 0 1 1.584-3.808z" class="cls-14" data-name="Path 1586" transform="translate(-104.813 -222.793)"/>
            <path id="Path_1587" d="M128.177 250.9a19.833 19.833 0 0 0-3.278.634 2.315 2.315 0 0 1 2.643 1.692 6.107 6.107 0 0 0 2.96 3.383 8.931 8.931 0 0 0 4.229.952 8 8 0 0 0-.106-1.586 6.577 6.577 0 0 0-.423-1.692c-.211-.529-.529-.952-.74-1.374a4.794 4.794 0 0 0-2.22-1.586 6.194 6.194 0 0 0-3.065-.423z" class="cls-15" data-name="Path 1587" transform="translate(-105.402 -222.99)"/>
            <path id="Path_1588" d="M135.957 249.829a6.1 6.1 0 0 0-.952 2.749 8 8 0 0 0-.106 1.586 12.831 12.831 0 0 0 .106 1.9l.317 1.586a6.135 6.135 0 0 0 3.806-2.22 7.231 7.231 0 0 0 .952-5.709c-.529-2.326-.106-3.278.634-4.123a14.2 14.2 0 0 0-2.749 2.009 7.994 7.994 0 0 0-2.008 2.222z" class="cls-16" data-name="Path 1588" transform="translate(-104.83 -223.292)"/>
            <path id="Path_1589" d="M131.815 247.322a5.542 5.542 0 0 0-1.057-1.163 4.532 4.532 0 0 0-2.537-1.057 10.225 10.225 0 0 0-5.921 1.586 3.634 3.634 0 0 1 1.48-.106 2.262 2.262 0 0 1 1.374 1.163 5.917 5.917 0 0 0 3.595 2.643 8.468 8.468 0 0 0 4.335 0c-.106-.529-.317-1.057-.423-1.48a5.605 5.605 0 0 0-.846-1.586z" class="cls-17" data-name="Path 1589" transform="translate(-105.551 -223.322)"/>
            <path id="Path_1590" d="M132.4 245.535a8.162 8.162 0 0 0 .211 1.586 16.3 16.3 0 0 0 .529 1.8c.211.529.423.952.634 1.48a5.847 5.847 0 0 0 3.172-2.96 7.221 7.221 0 0 0-.317-5.815 11.855 11.855 0 0 1-.529-1.374 4.652 4.652 0 0 1-.211-1.057 3.2 3.2 0 0 1 .529-1.692 11.861 11.861 0 0 0-3.7 5.181 8.169 8.169 0 0 0-.318 2.851z" class="cls-18" data-name="Path 1590" transform="translate(-104.974 -223.756)"/>
            <path id="Path_1591" d="M128.31 241.076a4.423 4.423 0 0 0-1.269-.846 4.766 4.766 0 0 0-2.643-.529c-1.8.106-3.7 1.269-5.5 2.749a3.921 3.921 0 0 1 1.48-.423 2.373 2.373 0 0 1 1.586.846 6.843 6.843 0 0 0 1.586 1.163 7.237 7.237 0 0 0 2.537.74 8.563 8.563 0 0 0 4.229-.846 5.7 5.7 0 0 0-.74-1.374c-.526-.634-.949-1.163-1.266-1.48z" class="cls-19" data-name="Path 1591" transform="translate(-105.746 -223.631)"/>
            <path id="Path_1592" d="M128.942 240.655a6.31 6.31 0 0 0 .952 1.586c.317.423.529.846.952 1.374a6.18 6.18 0 0 0 2.537-3.595 6.4 6.4 0 0 0-.211-3.172 10.434 10.434 0 0 0-1.269-2.432c-1.48-1.8-1.48-2.855-1.163-4.018a13.1 13.1 0 0 0-2.537 5.921 9.555 9.555 0 0 0 .211 2.96 11.859 11.859 0 0 0 .528 1.376z" class="cls-20" data-name="Path 1592" transform="translate(-105.216 -224.162)"/>
            <path id="Path_1593" d="M120.526 239.761h1.374a8.458 8.458 0 0 0 3.912-1.8 11.574 11.574 0 0 0-1.057-1.163 5.993 5.993 0 0 0-1.374-1.057 5.157 5.157 0 0 0-1.374-.634 6.031 6.031 0 0 0-2.749 0c-1.8.529-3.278 2.009-4.758 3.912a2.36 2.36 0 0 1 1.374-.634 2.153 2.153 0 0 1 1.692.423 9.649 9.649 0 0 0 1.8.846c.315.001.734.107 1.16.107z" class="cls-21" data-name="Path 1593" transform="translate(-105.998 -223.902)"/>
            <path id="Path_1594" d="M123.054 233.8a9.654 9.654 0 0 0 .846 1.374 7.513 7.513 0 0 0 1.269 1.374 11.577 11.577 0 0 0 1.163 1.057 5.772 5.772 0 0 0 1.692-4.018 9.255 9.255 0 0 0-.211-1.692c-.211-.529-.423-.952-.634-1.48a9.355 9.355 0 0 0-1.8-2.115 5.485 5.485 0 0 1-1.692-2.009 3.611 3.611 0 0 1-.317-1.8 12.7 12.7 0 0 0-1.269 6.238 10.491 10.491 0 0 0 .953 3.071z" class="cls-22" data-name="Path 1594" transform="translate(-105.565 -224.5)"/>
            <path id="Path_1595" d="M122.939 234.455c-1.8-7.084-6.555-9.2-13.639-8.141 4.863 11.313 13.639 8.141 13.639 8.141z" class="cls-23" data-name="Path 1595" transform="translate(-106.296 -224.411)"/>
        </g>
        <g id="Group_627" data-name="Group 627" transform="translate(593.5 12.5)">
            <path id="Path_1596" d="M56.521 283.52l.74.74a5.615 5.615 0 0 1 1.374 1.374 5.946 5.946 0 0 1 1.057 2.326 5.442 5.442 0 0 1 .106 1.9 6.394 6.394 0 0 1-.423 2.326 6.114 6.114 0 0 1-1.48-.529 5.788 5.788 0 0 1-3.595-4.546 11.1 11.1 0 0 1 1.9-5.815 2.535 2.535 0 0 0-.211 1.48 1.619 1.619 0 0 1 .532.744z" class="cls-24" data-name="Path 1596" transform="translate(-28.08 -221.247)"/>
            <path id="Path_1597" d="M61.893 292.558a6.2 6.2 0 0 1-1.48-2.326c-.529-1.692-.106-3.912.634-6.132a2.72 2.72 0 0 0 .106 1.586 2.592 2.592 0 0 0 1.374 1.163 6.469 6.469 0 0 1 3.172 3.172 8.9 8.9 0 0 1 .634 4.229 4.11 4.11 0 0 1-1.586-.211 10.372 10.372 0 0 1-2.854-1.481z" class="cls-25" data-name="Path 1597" transform="translate(-27.743 -221.087)"/>
            <path id="Path_1598" d="M58.752 295.043a6.352 6.352 0 0 1 2.855-.74 8.135 8.135 0 0 1 3.489.317 8.814 8.814 0 0 1 1.586.423 7.2 7.2 0 0 1-1.057 2.22 4.513 4.513 0 0 1-1.48 1.374 6.506 6.506 0 0 1-3.066.952 7.162 7.162 0 0 1-2.749-.423 6.353 6.353 0 0 0-2.643-.317 2.778 2.778 0 0 0-1.586.74 12.68 12.68 0 0 1 4.651-4.546z" class="cls-26" data-name="Path 1598" transform="translate(-28.091 -220.506)"/>
            <path id="Path_1599" d="M51.737 288.073a6.907 6.907 0 0 1-1.269-1.163 5.993 5.993 0 0 1-.846-1.374 4.167 4.167 0 0 1-.317-2.749 10.451 10.451 0 0 1 3.172-5.286 2.293 2.293 0 0 0 .211 3.066 5.972 5.972 0 0 1 1.586 4.123 8.775 8.775 0 0 1-1.163 4.123c-.528-.213-.951-.529-1.374-.74z" class="cls-27" data-name="Path 1599" transform="translate(-28.372 -221.465)"/>
            <path id="Path_1600" d="M58.03 292.259c.423.212.952.529 1.48.74a7.621 7.621 0 0 1-1.48 2.009 4.964 4.964 0 0 1-1.692 1.057 6.966 6.966 0 0 1-3.278.317 11.617 11.617 0 0 1-2.537-.952 5.161 5.161 0 0 0-1.374-.634 4.651 4.651 0 0 0-1.057-.211 3.041 3.041 0 0 0-1.692.317 12.48 12.48 0 0 1 5.392-3.383c1.908-.634 3.808-.419 6.238.74z" class="cls-28" data-name="Path 1600" transform="translate(-28.532 -220.682)"/>
            <path id="Path_1601" d="M46.486 283.05a4.435 4.435 0 0 1-.952-1.48 8.285 8.285 0 0 1-.529-1.48 4.833 4.833 0 0 1 .211-2.749 10.237 10.237 0 0 1 4.123-4.441 2.331 2.331 0 0 0-.423 3.066 2.651 2.651 0 0 0 .423.74l.317.952a11.013 11.013 0 0 1 0 2.643 8.354 8.354 0 0 1-2.009 3.806 3.769 3.769 0 0 1-1.161-1.057z" class="cls-29" data-name="Path 1601" transform="translate(-28.618 -221.728)"/>
            <path id="Path_1602" d="M48.581 286.723a9.674 9.674 0 0 1 1.48.74l1.586.952a11.194 11.194 0 0 1 1.269 1.057 5.6 5.6 0 0 1-3.7 2.22c-2.326.423-4.335-.952-5.5-1.9-1.692-1.586-2.749-1.692-4.018-1.374a11.875 11.875 0 0 1 6.026-2.115 9.345 9.345 0 0 1 2.857.42z" class="cls-30" data-name="Path 1602" transform="translate(-28.916 -220.961)"/>
            <path id="Path_1603" d="M43.192 278.473a8.821 8.821 0 0 1-.846-1.269 7.911 7.911 0 0 1-.846-3.172 4.626 4.626 0 0 1 .846-2.643 9.036 9.036 0 0 1 2.009-2.009 19.315 19.315 0 0 1 2.96-1.48 3.361 3.361 0 0 0-1.057 1.057 2.584 2.584 0 0 0 0 1.8c.106.211.106.529.211.846 0 .317.106.634.106 1.057a4.983 4.983 0 0 1-.634 2.537 8.982 8.982 0 0 1-2.749 3.276z" class="cls-31" data-name="Path 1603" transform="translate(-28.813 -222.015)"/>
            <path id="Path_1604" d="M40.844 280.109a9.816 9.816 0 0 1 2.749 1.057l1.269.952a16.26 16.26 0 0 1 1.269 1.374 13.43 13.43 0 0 1 1.057 1.269 6.384 6.384 0 0 1-4.123 1.48 4.905 4.905 0 0 1-2.96-1.163 11.236 11.236 0 0 1-1.163-.952 6.843 6.843 0 0 1-.846-.951c-1.269-1.9-2.432-2.22-3.595-2.22a11.424 11.424 0 0 1 6.343-.846z" class="cls-32" data-name="Path 1604" transform="translate(-29.214 -221.325)"/>
            <path id="Path_1605" d="M39.829 271.081c-.106-.211-.106-.529-.211-.74a10.684 10.684 0 0 1-.317-1.8 8 8 0 0 1 .106-1.586 5.058 5.058 0 0 1 1.374-2.432 4.143 4.143 0 0 1 1.057-.846c.423-.211.846-.423 1.374-.634a14.857 14.857 0 0 1 3.278-.846 2.191 2.191 0 0 0-1.692 2.643 4.2 4.2 0 0 1-.211 1.9 4.594 4.594 0 0 1-1.057 2.326 8.215 8.215 0 0 1-3.383 2.643 1.722 1.722 0 0 1-.318-.628z" class="cls-33" data-name="Path 1605" transform="translate(-28.939 -222.341)"/>
            <path id="Path_1606" d="M34.389 272.3a12.2 12.2 0 0 1 2.96.634 7.441 7.441 0 0 1 2.432 1.586 8.564 8.564 0 0 1 2.009 2.855c.211.423.529.952.74 1.48a6.8 6.8 0 0 1-4.441.529 5.172 5.172 0 0 1-2.643-1.8c-.317-.423-.634-.74-.952-1.163a5.664 5.664 0 0 1-.529-1.163 5.387 5.387 0 0 0-1.48-2.22 3.6 3.6 0 0 0-1.586-.74c1.375.002 2.433-.098 3.49.002z" class="cls-34" data-name="Path 1606" transform="translate(-29.42 -221.765)"/>
            <path id="Path_1607" d="M38.3 263.247a6.312 6.312 0 0 1 .529-3.278 4.766 4.766 0 0 1 1.8-2.009 7.049 7.049 0 0 1 2.749-.952 11.836 11.836 0 0 1 3.383-.106 2.459 2.459 0 0 0-2.22 2.22 5.207 5.207 0 0 1-.529 1.9 6.464 6.464 0 0 1-1.586 2.115 7.942 7.942 0 0 1-3.912 1.8c-.107-.737-.107-1.267-.214-1.69z" class="cls-35" data-name="Path 1607" transform="translate(-28.997 -222.648)"/>
            <path id="Path_1608" d="M32.778 264.029a8.292 8.292 0 0 1 1.48.529 8.735 8.735 0 0 1 1.374.74 6.407 6.407 0 0 1 2.009 2.114c.211.423.529.952.74 1.48a17.115 17.115 0 0 1 .634 1.8c.106.211.106.529.211.74s.106.529.211.846a5.773 5.773 0 0 1-4.335-.423 6.989 6.989 0 0 1-2.326-2.326 9.437 9.437 0 0 1-.952-2.537c-.529-2.326-1.269-2.96-2.326-3.489a10.645 10.645 0 0 1 3.28.526z" class="cls-36" data-name="Path 1608" transform="translate(-29.5 -222.267)"/>
            <path id="Path_1609" d="M29.9 254.3a14.371 14.371 0 0 1 3.172 1.374 11.17 11.17 0 0 1 2.432 1.8 8.642 8.642 0 0 1 1.586 2.537 14.577 14.577 0 0 1 .74 3.383v1.586a5.85 5.85 0 0 1-4.123-1.374 6.914 6.914 0 0 1-1.8-2.749 9.174 9.174 0 0 1-.423-2.749A4.318 4.318 0 0 0 29.9 254.3z" class="cls-37" data-name="Path 1609" transform="translate(-29.477 -222.793)"/>
            <path id="Path_1610" d="M44.955 250.9a19.832 19.832 0 0 1 3.278.634 2.315 2.315 0 0 0-2.643 1.692 6.107 6.107 0 0 1-2.96 3.383 8.931 8.931 0 0 1-4.229.952 8 8 0 0 1 .106-1.586 6.577 6.577 0 0 1 .423-1.692c.211-.529.529-.952.74-1.374a4.8 4.8 0 0 1 2.22-1.586 6.194 6.194 0 0 1 3.065-.423z" class="cls-38" data-name="Path 1610" transform="translate(-28.99 -222.99)"/>
            <path id="Path_1611" d="M36.858 249.829a6.1 6.1 0 0 1 .952 2.749 8 8 0 0 1 .106 1.586 12.829 12.829 0 0 1-.106 1.9l-.317 1.586a6.135 6.135 0 0 1-3.806-2.22 7.231 7.231 0 0 1-.952-5.709c.529-2.326.106-3.278-.634-4.123a14.2 14.2 0 0 1 2.749 2.009 6.639 6.639 0 0 1 2.008 2.222z" class="cls-39" data-name="Path 1611" transform="translate(-29.351 -223.292)"/>
            <path id="Path_1612" d="M41.269 247.322a5.542 5.542 0 0 1 1.057-1.163 4.532 4.532 0 0 1 2.537-1.057 10.225 10.225 0 0 1 5.921 1.586 3.634 3.634 0 0 0-1.48-.106 2.262 2.262 0 0 0-1.374 1.163 5.917 5.917 0 0 1-3.595 2.643 8.467 8.467 0 0 1-4.335 0c.106-.529.317-1.057.423-1.48a5.6 5.6 0 0 1 .846-1.586z" class="cls-40" data-name="Path 1612" transform="translate(-28.899 -223.322)"/>
            <path id="Path_1613" d="M40.473 245.535a8.161 8.161 0 0 1-.211 1.586 16.309 16.309 0 0 1-.529 1.8c-.211.529-.423.952-.634 1.48a5.847 5.847 0 0 1-3.172-2.96 7.221 7.221 0 0 1 .317-5.815 11.855 11.855 0 0 0 .529-1.374 4.652 4.652 0 0 0 .211-1.057 3.2 3.2 0 0 0-.529-1.692 11.861 11.861 0 0 1 3.7 5.181 8.169 8.169 0 0 1 .318 2.851z" class="cls-41" data-name="Path 1613" transform="translate(-29.16 -223.756)"/>
            <path id="Path_1614" d="M44.909 241.076a4.423 4.423 0 0 1 1.269-.846 4.766 4.766 0 0 1 2.643-.529c1.8.106 3.7 1.269 5.5 2.749a3.921 3.921 0 0 0-1.48-.423 2.373 2.373 0 0 0-1.586.846 6.844 6.844 0 0 1-1.586 1.163 7.237 7.237 0 0 1-2.537.74 8.563 8.563 0 0 1-4.229-.846c.211-.529.529-.952.74-1.374a9.926 9.926 0 0 1 1.266-1.48z" class="cls-42" data-name="Path 1614" transform="translate(-28.733 -223.631)"/>
            <path id="Path_1615" d="M43.946 240.655a6.31 6.31 0 0 1-.952 1.586c-.317.423-.529.846-.952 1.374a6.18 6.18 0 0 1-2.537-3.595 6.4 6.4 0 0 1 .211-3.172 10.432 10.432 0 0 1 1.269-2.432c1.48-1.8 1.48-2.855 1.163-4.018a13.1 13.1 0 0 1 2.537 5.921 9.555 9.555 0 0 1-.211 2.96 11.853 11.853 0 0 1-.528 1.376z" class="cls-43" data-name="Path 1615" transform="translate(-28.933 -224.162)"/>
            <path id="Path_1616" d="M52.686 239.761h-1.374a8.458 8.458 0 0 1-3.912-1.8 11.576 11.576 0 0 1 1.057-1.163 5.994 5.994 0 0 1 1.374-1.057 5.157 5.157 0 0 1 1.374-.634 6.031 6.031 0 0 1 2.749 0c1.8.529 3.278 2.009 4.758 3.912a2.36 2.36 0 0 0-1.374-.634 2.153 2.153 0 0 0-1.692.423 9.65 9.65 0 0 1-1.8.846c-.314.001-.737.107-1.16.107z" class="cls-44" data-name="Path 1616" transform="translate(-28.475 -223.902)"/>
            <path id="Path_1617" d="M49.769 233.8a9.654 9.654 0 0 1-.846 1.374 7.513 7.513 0 0 1-1.269 1.374 11.576 11.576 0 0 1-1.163 1.057 5.772 5.772 0 0 1-1.692-4.018 9.254 9.254 0 0 1 .211-1.692c.211-.529.423-.952.634-1.48a9.354 9.354 0 0 1 1.8-2.115 5.485 5.485 0 0 0 1.692-2.009 3.612 3.612 0 0 0 .317-1.8 12.7 12.7 0 0 1 1.269 6.238 6.564 6.564 0 0 1-.953 3.071z" class="cls-45" data-name="Path 1617" transform="translate(-28.624 -224.5)"/>
            <path id="Path_1618" d="M50.4 234.455c1.8-7.084 6.555-9.2 13.639-8.141-4.969 11.313-13.639 8.141-13.639 8.141z" class="cls-46" data-name="Path 1618" transform="translate(-28.303 -224.411)"/>
        </g>
        <text id="Silicon" class="cls-47" transform="translate(621.5 49.5)">
            <tspan x="0" y="0">Silicon</tspan>
        </text>
        <g id="Group_628" data-name="Group 628" transform="translate(636.108 79.531)">
            <path id="Path_1619" d="M88.635 291.389l-2.009-3.489-2.009 3.489-4.018.846 2.749 2.96-.423 4.123 3.7-1.692 3.7 1.692-.525-4.118 2.855-2.96z" class="cls-48" data-name="Path 1619" transform="translate(-69.181 -287.9)"/>
            <path id="Path_1620" d="M74.346 294.614l-1.163-2.114-1.163 2.115-2.22.423 1.586 1.692-.317 2.326 2.115-.952 2.115.952-.317-2.326 1.586-1.692z" class="cls-49" data-name="Path 1620" transform="translate(-69.8 -287.637)"/>
            <path id="Path_1621" d="M103.167 295.037l-2.22-.423-1.164-2.114-1.163 2.115-2.22.423 1.48 1.692-.211 2.326 2.115-.952 2.115.952-.317-2.326z" class="cls-50" data-name="Path 1621" transform="translate(-68.277 -287.637)"/>
        </g>
        <text id="Awards" class="cls-51" transform="translate(621.5 66.5)">
            <tspan x="0" y="0">Awards</tspan>
        </text>
    </g>
</svg>
