<svg xmlns="http://www.w3.org/2000/svg" width="24" height="14" viewBox="0 0 24 14">
    <defs>
        <style>
            .cls-1{fill:#fff}
        </style>
    </defs>
    <path id="Path_2134" d="M12 98.725c-4.585 0-8.744 2.455-11.812 6.443a.914.914 0 0 0 0 1.11c3.068 3.992 7.227 6.447 11.812 6.447s8.744-2.455 11.812-6.443a.914.914 0 0 0 0-1.11c-3.068-3.992-7.227-6.447-11.812-6.447zm.329 11.929a4.941 4.941 0 1 1 4.708-4.607 5 5 0 0 1-4.708 4.607zm-.152-2.277a2.661 2.661 0 1 1 2.538-2.484 2.685 2.685 0 0 1-2.538 2.484z" class="cls-1" data-name="Path 2134" transform="translate(0 -98.725)"/>
</svg>
