<svg xmlns="http://www.w3.org/2000/svg" width="24" height="24" viewBox="0 0 24 24">
    <defs>
        <style>
            .cls-1{fill:#fff}
        </style>
    </defs>
    <g id="Group_2856" data-name="Group 2856" transform="translate(-142 -203)">
        <path id="Exclusion_8" d="M22 24H2a2 2 0 0 1-2-2V2a2 2 0 0 1 2-2h20a2 2 0 0 1 2 2v20a2 2 0 0 1-2 2zM3.5 1.5a2 2 0 0 0-2 2v17a2 2 0 0 0 2 2h17a2 2 0 0 0 2-2v-17a2 2 0 0 0-2-2z" class="cls-1" data-name="Exclusion 8" transform="translate(142 203)"/>
        <path id="pulse" d="M8.8 77.176a.987.987 0 0 1-.92-.7l-2.343-7.048-.947 2.154a.972.972 0 0 1-.873.586H.978a1.082 1.082 0 0 1 0-2.153h2.129L4.793 66.2a.94.94 0 0 1 1.307-.5 1.048 1.048 0 0 1 .493.6l2.07 6.223 2.348-9.553a.973.973 0 0 1 1.2-.764 1.024 1.024 0 0 1 .677.7l2.105 7.1h2.031a1.082 1.082 0 0 1 0 2.153h-2.742a.992.992 0 0 1-.927-.741L12.032 67l-2.285 9.375a1 1 0 0 1-.9.8z" class="cls-1" transform="translate(144.999 145.324)"/>
    </g>
</svg>
