<svg xmlns="http://www.w3.org/2000/svg" xmlns:xlink="http://www.w3.org/1999/xlink" width="484.426" height="294.249" viewBox="0 0 484.426 294.249">
    <defs>
        <style>
            .cls-1{opacity:.84}.cls-2{fill:url(#linear-gradient)}.cls-3{fill:url(#linear-gradient-2)}.cls-4{fill:#0c0f38}.cls-4,.cls-5{opacity:.8}.cls-5,.cls-7{fill:#d4088c}.cls-6{fill:#6ee8fc}.cls-8{fill:#6ee1f8}
        </style>
        <linearGradient id="linear-gradient" x1="2.717" x2="3.721" y1="52.29" y2="52.29" gradientUnits="objectBoundingBox">
            <stop offset="0" stop-color="#6ee8fc"/>
            <stop offset=".157" stop-color="#6ae2fb"/>
            <stop offset=".368" stop-color="#5ed1f7"/>
            <stop offset=".609" stop-color="#4bb5f1"/>
            <stop offset=".872" stop-color="#308ee8"/>
            <stop offset=".962" stop-color="#267fe5"/>
        </linearGradient>
        <linearGradient id="linear-gradient-2" x1="-10.181" x2="-8.93" y1="17.462" y2="17.462" xlink:href="#linear-gradient"/>
    </defs>
    <g id="Group_2902" class="cls-1" data-name="Group 2902" transform="translate(-145.063 -60.7)">
        <circle id="Ellipse_88" cx="10.742" cy="10.742" r="10.742" class="cls-2" data-name="Ellipse 88" transform="translate(172.749 104.887)"/>
        <circle id="Ellipse_89" cx="19.38" cy="19.38" r="19.38" class="cls-3" data-name="Ellipse 89" transform="translate(590.727 201.235)"/>
        <path id="Path_2177" d="M463 277.625c-7.752 1.55-16.279-.886-18.827-5.426-2.658-4.541 1.55-9.413 9.413-10.853 7.752-1.55 16.28.886 18.827 5.426 2.551 4.428-1.657 9.302-9.413 10.853z" class="cls-4" data-name="Path 2177" transform="translate(152.087 21.509)"/>
        <path id="Path_2178" d="M180.752 150.407c-3.876.775-8.084-.443-9.413-2.658s.775-4.651 4.651-5.426 8.084.443 9.413 2.658-.664 4.651-4.651 5.426z" class="cls-4" data-name="Path 2178" transform="translate(5.065 8.745)"/>
        <g id="Group_2879" data-name="Group 2879" transform="translate(145.063 60.7)">
            <circle id="Ellipse_91" cx="2.769" cy="2.769" r="2.769" class="cls-5" data-name="Ellipse 91" transform="translate(145.334 7.309)"/>
            <circle id="Ellipse_92" cx="3.322" cy="3.322" r="3.322" class="cls-5" data-name="Ellipse 92" transform="translate(57.92 287.604)"/>
            <path id="Path_2179" d="M181.122 310.262a1.661 1.661 0 0 1-3.322 0 1.7 1.7 0 0 1 1.661-1.661 1.567 1.567 0 0 1 1.661 1.661z" class="cls-6" data-name="Path 2179" transform="translate(-139.261 -34.065)"/>
            <path id="Path_2180" d="M443.744 253.172a1.772 1.772 0 1 1-1.772-1.772 1.749 1.749 0 0 1 1.772 1.772z" class="cls-6" data-name="Path 2180" transform="translate(6.682 -40.21)"/>
            <g id="Group_2878" data-name="Group 2878">
                <circle id="Ellipse_93" cx="2.547" cy="2.547" r="2.547" class="cls-6" data-name="Ellipse 93" transform="translate(0 90.921)"/>
                <path id="Path_2181" d="M316.294 63.247a2.547 2.547 0 1 1-2.547-2.547 2.576 2.576 0 0 1 2.547 2.547z" class="cls-6" data-name="Path 2181" transform="translate(-124.927 -60.7)"/>
                <path id="Path_2182" d="M156.958 140.23a1.329 1.329 0 1 1-1.329-1.329 1.277 1.277 0 0 1 1.329 1.329z" class="cls-6" data-name="Path 2182" transform="translate(-141.786 -52.299)"/>
            </g>
            <path id="Path_2183" d="M371.522 71.161a1.661 1.661 0 1 1-1.661-1.661 1.7 1.7 0 0 1 1.661 1.661z" class="cls-7" data-name="Path 2183" transform="translate(-29.64 -59.754)"/>
        </g>
        <g id="Group_2883" data-name="Group 2883" transform="translate(153.59 227.039)">
            <g id="Group_2880" data-name="Group 2880" transform="translate(4.208)">
                <path id="Path_2184" d="M155.054 219.76l-.554-2.215 4.651-1.329-1.329-4.762 2.215-.554 1.883 6.866z" class="cls-8" data-name="Path 2184" transform="translate(-154.5 -210.9)"/>
            </g>
            <g id="Group_2881" data-name="Group 2881" transform="translate(0 7.42)">
                <path id="Path_2185" d="M151.254 226.46l-.554-2.215 4.762-1.329-1.329-4.651 2.1-.664 1.883 6.866z" class="cls-8" data-name="Path 2185" transform="translate(-150.7 -217.6)"/>
            </g>
            <g id="Group_2882" data-name="Group 2882" transform="translate(3.101 5.094)">
                <path id="Path_2186" d="M155.383 224.249l-1.883-6.866 6.866-1.883.554 2.1-4.651 1.329 1.331 4.771z" class="cls-8" data-name="Path 2186" transform="translate(-153.5 -215.5)"/>
            </g>
        </g>
        <path id="Path_2187" d="M303.416 76.831a5.317 5.317 0 0 1-5.316-5.316 5.316 5.316 0 1 1 10.631 0 5.317 5.317 0 0 1-5.315 5.316zm0-8.306a3.1 3.1 0 1 0 3.1 3.1 3.1 3.1 0 0 0-3.1-3.099z" class="cls-8" data-name="Path 2187" transform="translate(75.533 .591)"/>
        <path id="Path_2188" d="M407.88 315.06l-5.98-5.98 5.98-5.98 5.98 5.98zm-2.769-5.98l2.879 2.879 2.879-2.879-2.879-2.879z" class="cls-8" data-name="Path 2188" transform="translate(125.058 26.045)"/>
        <g id="Group_2884" data-name="Group 2884" transform="translate(568.231 122.776)">
            <path id="Rectangle_3104" d="M0 0h2.215v9.081H0z" class="cls-7" data-name="Rectangle 3104" transform="rotate(-45 1.89 .783)"/>
            <path id="Rectangle_3105" d="M0 0h9.081v2.215H0z" class="cls-7" data-name="Rectangle 3105" transform="rotate(-45 7.79 3.205)"/>
        </g>
    </g>
</svg>
