<svg xmlns="http://www.w3.org/2000/svg" width="24" height="24.001" viewBox="0 0 24 24.001">
    <defs>
        <style>
            .cls-1{fill:url(#linear-gradient)}
        </style>
        <linearGradient id="linear-gradient" x1=".5" x2=".5" y2="1" gradientUnits="objectBoundingBox">
            <stop offset="0" stop-color="#ff0075"/>
            <stop offset="1" stop-color="#6b10e2"/>
        </linearGradient>
    </defs>
    <path id="Union_5" d="M-12961.3 37a.7.7 0 0 1-.7-.7.7.7 0 0 1 .7-.7h.751v-7.83a.7.7 0 0 1 .7-.7h2.813a.7.7 0 0 1 .7.7v7.83h1.405v-5.021a.7.7 0 0 1 .7-.7h2.814a.7.7 0 0 1 .7.7v5.016h1.405V24.954a.7.7 0 0 1 .7-.7h2.813a.7.7 0 0 1 .7.7v10.641h1.405v-14.86a.7.7 0 0 1 .705-.7h2.812a.7.7 0 0 1 .7.7v14.86h.752a.7.7 0 0 1 .7.7.7.7 0 0 1-.7.7zm19.033-1.405h1.405V21.437h-1.405zm-5.625 0h1.405v-9.938h-1.405zm-5.627 0h1.408v-4.314h-1.408zm-5.625 0h1.409v-7.124h-1.409zm4.22-10.641a2.28 2.28 0 0 1 .016-.26l-2.068-1.034a2.111 2.111 0 0 1-1.464.592 2.112 2.112 0 0 1-2.108-2.111 2.112 2.112 0 0 1 2.108-2.108 2.113 2.113 0 0 1 2.111 2.108 2.279 2.279 0 0 1-.017.26l2.068 1.034a2.113 2.113 0 0 1 1.464-.592 2.077 2.077 0 0 1 .908.208l2.813-2.814a2.085 2.085 0 0 1-.208-.908 2.113 2.113 0 0 1 2.111-2.111 2.1 2.1 0 0 1 1.168.355l2.443-1.831a2.111 2.111 0 0 1-.1-.631 2.113 2.113 0 0 1 2.11-2.111 2.112 2.112 0 0 1 2.108 2.111 2.112 2.112 0 0 1-2.108 2.108 2.075 2.075 0 0 1-1.167-.355l-2.446 1.835a2.036 2.036 0 0 1 .1.631 2.112 2.112 0 0 1-2.108 2.108 2.137 2.137 0 0 1-.911-.2l-2.811 2.811a2.14 2.14 0 0 1 .205.911 2.112 2.112 0 0 1-2.108 2.108 2.112 2.112 0 0 1-2.107-2.114zm1.405 0a.7.7 0 0 0 .705.7.7.7 0 0 0 .7-.7.7.7 0 0 0-.7-.7.7.7 0 0 0-.703.7zm-5.625-2.814a.7.7 0 0 0 .7.7.705.705 0 0 0 .706-.7.705.705 0 0 0-.706-.7.7.7 0 0 0-.698.7zm11.252-2.811a.7.7 0 0 0 .7.7.7.7 0 0 0 .7-.7.7.7 0 0 0-.7-.7.7.7 0 0 0-.698.701zm5.625-4.219a.7.7 0 0 0 .7.7.7.7 0 0 0 .7-.7.7.7 0 0 0-.7-.7.7.7 0 0 0-.698.7z" class="cls-1" data-name="Union 5" transform="translate(12962 -12.999)"/>
</svg>
