<svg xmlns="http://www.w3.org/2000/svg" width="24" height="24" viewBox="0 0 24 24">
    <defs>
        <style>
            .cls-1{fill:url(#linear-gradient)}
        </style>
        <linearGradient id="linear-gradient" x1=".5" x2=".5" y2="1" gradientUnits="objectBoundingBox">
            <stop offset="0" stop-color="#ff0075"/>
            <stop offset="1" stop-color="#6b10e2"/>
        </linearGradient>
    </defs>
    <g id="Page-1" transform="translate(0 -.002)">
        <g id="_029---Peice-of-the-puzzle" data-name="029---Peice-of-the-puzzle" transform="translate(0 .002)">
            <path id="Shape" d="M1.2 24h2a1.194 1.194 0 0 0 .888-.4h10.033a3.194 3.194 0 0 0 1.664-.467l7.5-4.564a1.5 1.5 0 0 0 .691-.994 1.473 1.473 0 0 0-.25-1.149.392.392 0 0 0-.023-.034 1.493 1.493 0 0 0-1.67-.52l-6.2 2.065 7.651-7.655a.4.4 0 0 0 0-.566l-3.2-3.2a1.554 1.554 0 0 0-2.187.024l-.038.038a.95.95 0 0 0-.257.794 1.969 1.969 0 0 1-.94 1.927 1.877 1.877 0 0 1-1.942.02 1.814 1.814 0 0 1-.878-1.354 1.954 1.954 0 0 1 2.2-2.16.923.923 0 0 0 .775-.254l.045-.044a1.555 1.555 0 0 0 .024-2.19l-3.2-3.2a.4.4 0 0 0-.566 0l-3.3 3.3a.779.779 0 0 1-.54.232.657.657 0 0 1-.533-.222L8.92 3.4a.128.128 0 0 1-.017-.1A2.609 2.609 0 0 0 6.019.265 2.8 2.8 0 0 0 3.96 1.573a2.688 2.688 0 0 0-.052 2.779A2.62 2.62 0 0 0 6.6 5.6a.134.134 0 0 1 .108.02l.032.032a.712.712 0 0 1 .207.518.778.778 0 0 1-.231.541l-3.3 3.3a.4.4 0 0 0 0 .566l4.519 4.513a3.265 3.265 0 0 1-.285-.2A4.066 4.066 0 0 0 5.12 14h-.793a1.2 1.2 0 0 0-1.127-.8h-2A1.2 1.2 0 0 0 0 14.4v8.4A1.2 1.2 0 0 0 1.2 24zm3.07-13.706l3.017-3.012a1.572 1.572 0 0 0 .465-1.1 1.5 1.5 0 0 0-.44-1.094l-.031-.028a.907.907 0 0 0-.8-.245A1.83 1.83 0 0 1 4.6 3.942 1.88 1.88 0 0 1 4.64 2a2 2 0 0 1 1.469-.94 1.809 1.809 0 0 1 2 2.121.92.92 0 0 0 .252.8L8.394 4a1.5 1.5 0 0 0 1.072.443h.024a1.575 1.575 0 0 0 1.093-.466L13.6.967l2.916 2.915a.753.753 0 0 1-.022 1.059l-.045.044a.138.138 0 0 1-.106.027 2.754 2.754 0 0 0-3.1 3.048A2.634 2.634 0 0 0 14.5 10a2.687 2.687 0 0 0 2.782-.022 2.76 2.76 0 0 0 1.313-2.706.164.164 0 0 1 .028-.128l.038-.038a.753.753 0 0 1 1.058-.024L22.635 10l-8.395 8.4h-.223a1.84 1.84 0 0 0-.149-1.575l-.036-.06a2.413 2.413 0 0 0-2.06-1.165h-2.2zm2.88 5.221a4.067 4.067 0 0 0 2.25.876c.093.006.186.012.28.012h2.092a1.608 1.608 0 0 1 1.372.776l.036.06a1.045 1.045 0 0 1-.06 1.164h-2.43a3.986 3.986 0 0 0-2.219.672l-.293.2a.4.4 0 0 0 .444.666l.293-.2a3.19 3.19 0 0 1 1.775-.541h3.555c.05 0 .1-.008.147-.012h.02a.384.384 0 0 0 .048-.009 2 2 0 0 0 .418-.085l7.4-2.468a.69.69 0 0 1 .755.211.405.405 0 0 0 .023.034.7.7 0 0 1-.194 1.012l-7.5 4.564a2.4 2.4 0 0 1-1.248.35H4.4v-8h.72a3.261 3.261 0 0 1 2.03.717zM.8 14.4a.4.4 0 0 1 .4-.4h2a.4.4 0 0 1 .4.4v8.4a.4.4 0 0 1-.4.4h-2a.4.4 0 0 1-.4-.4z" class="cls-1" transform="translate(0 -.002)"/>
        </g>
    </g>
</svg>
